<?xml version="1.0" encoding="utf-8"?>
<!-- Generator: Adobe Illustrator 19.2.1, SVG Export Plug-In . SVG Version: 6.00 Build 0)  -->
<svg version="1.1" id="logoJF" xmlns="http://www.w3.org/2000/svg" xmlns:xlink="http://www.w3.org/1999/xlink" x="0px" y="0px"
	 viewBox="0 0 125 36" style="enable-background:new 0 0 125 36;" xml:space="preserve">
<g>
	<g>
		<path d="M13.9,8.7c-0.2,0-0.2,0.1-0.2,0.1v15.9c0,3.6-2.6,5.7-6.4,5.7c-2.8,0-5.8-2.6-5.8-5.2c0-1.8,1.4-3,2.6-3
			c1.4,0,2.5,1.2,2.5,2.6c0,2-1.6,1.6-1.6,3c0,1.1,1.2,2,2.3,2c1.6,0,1.9-0.8,1.9-2.5V8.9c0-0.1-0.1-0.1-0.1-0.1H6.4
			c-0.1,0-0.1-0.6,0-0.6h10.3c0,0,0,0.6,0,0.6C16.7,8.7,13.9,8.7,13.9,8.7z"/>
		<path d="M32.9,8.7c-0.1,0,0,0.1,0,0.2v14.6c0,4.2-2.5,6.9-7.6,6.9c-4.6,0-7.9-2-7.9-6.6v-15c0-0.1,0-0.1-0.1-0.1h-2.7
			c-0.1,0-0.1-0.6,0-0.6h10.2c0,0,0,0.6,0,0.6H22c-0.1,0-0.2,0.1-0.2,0.1v15c0,3.6,0.9,5.7,4.2,5.7c4.2,0,5.8-2.4,5.8-6V8.9
			c0-0.1,0-0.2-0.1-0.2h-2.8c0,0,0-0.6,0-0.6h6.6c0,0,0,0.6,0,0.6H32.9z"/>
		<path d="M42.2,30.4c-2,0-4-1.3-5.1-1.3c-0.9,0-1.6,0.6-1.7,1.2c0,0.1-0.6,0.1-0.6,0v-7.6c0-0.1,0.6-0.1,0.6,0
			c0,2.5,2.8,7.1,6.8,7.1c3.6,0,4.9-1.9,4.9-3.9c0-3-1.8-3.4-6.5-5.2c-2.8-1-5.1-2.6-5.1-6.2c0-4.1,2.8-7,6-7c1.8,0,2.1,0.8,3.8,0.8
			c0.9,0,1.2-0.4,1.3-0.8c0-0.1,0.6-0.1,0.6,0v5.9c0,0.1-0.6,0.1-0.6,0c0-2.9-2.2-5.4-5-5.4c-2.4,0-3.9,1.5-3.9,3.6
			c0,2.2,1.6,3.2,5.5,4.6c4,1.5,6.4,2.9,6.4,6.6C49.5,26.4,47,30.4,42.2,30.4"/>
		<path d="M67.4,15.8c0-3.6-2-7.1-6.5-7.1h-0.3c-0.1,0-0.2,0.1-0.2,0.1v20.3c0,0.1,0,0.1,0.2,0.1h2.7c0,0,0,0.6,0,0.6H53.2
			c0,0,0-0.6,0-0.6h2.7c0.1,0,0.2,0,0.2-0.1V8.9c0-0.1,0-0.1-0.2-0.1h-0.3c-4.5,0-6.3,3.5-6.3,7.1c0,0.1-0.6,0.1-0.6,0V8.2
			c0-0.1,0-0.1,0.1-0.1H68C68,8.1,68,8.1,68,8.2v7.6C68,15.9,67.4,15.9,67.4,15.8"/>
		<path d="M84.8,14.9c0-2.9-2.3-6.2-6.1-6.2h-2.2c-0.1,0-0.2,0.1-0.2,0.1v9.6h0.5c2.5,0,4.5-2,4.5-4.2c0-0.1,0.6-0.1,0.6,0v9
			c0,0-0.6,0-0.6,0c0-2.1-1.9-4.2-4.5-4.2h-0.5v10.1c0,0.1,0.1,0.1,0.2,0.1h2.7c0.1,0,0.1,0.6,0,0.6H68.8c-0.1,0-0.1-0.6,0-0.6h2.7
			c0.1,0,0.1,0,0.1-0.1V8.9c0-0.1-0.1-0.1-0.1-0.1h-2.7c-0.1,0-0.1-0.6,0-0.6h16.4c0.1,0,0.1,0.1,0.1,0.1v6.7
			C85.4,14.9,84.8,14.9,84.8,14.9"/>
		<path d="M89.5,13.8l-2.7,8.4h5.9L89.5,13.8z M92.2,29.9c-0.1,0-0.1-0.6,0-0.6h2.7c0.1,0,0.1,0,0.1,0l-2.1-6.3h-6.4L84.7,28
			c-0.3,1.1-0.5,1.3-0.5,1.3h2.5c0.1,0,0.1,0.6,0,0.6h-6.1c-0.1,0-0.1-0.6,0-0.6H83c0.3,0,0.3-0.1,0.8-1.3l6.9-20.3
			c0.1-0.1,0.6-0.1,0.6,0l8.4,21.5c0,0,0.1,0,0.2,0h2.7c0.1,0,0.1,0.6,0,0.6C102.8,29.9,92.2,29.9,92.2,29.9z"/>
		<path d="M108.9,18.6h-1.8v10.6c0,0.1,0.1,0.1,0.2,0.1h2.1c2.9,0,3.6-1,3.6-5C112.9,19.4,112,18.6,108.9,18.6 M108.2,8.7h-1
			c-0.1,0-0.2,0.1-0.2,0.1V18h2.2c2.1,0,2.6-0.9,2.6-4.7C111.8,9.7,111.1,8.7,108.2,8.7 M110.2,29.9H99.7c-0.1,0-0.1-0.6,0-0.6h2.7
			c0.1,0,0.2,0,0.2-0.1V8.9c0-0.1-0.1-0.1-0.2-0.1h-2.7c-0.1,0-0.1-0.6,0-0.6h9c4.1,0,7.2,1.6,7.2,5c0,3-2.6,5.1-5.2,5.1
			c3.7,0,6.7,2.2,6.7,5.9C117.4,27,115,29.9,110.2,29.9"/>
	</g>
</g>
</svg>
