<?xml version="1.0" standalone="yes"?>
<svg xmlns="http://www.w3.org/2000/svg" width="1600" height="1280">
<path style="fill:#f7f7f7; stroke:none;" d="M0 0L0 1280L1600 1280L1600 0L0 0z"/>
<path style="fill:#b90101; stroke:none;" d="M706 116C702.214 103.254 690.142 103.124 679 105.084C662.492 107.988 646.326 115.683 633.004 125.76C628.954 128.823 626.076 133 622 136C618.86 130.485 612.774 130.226 607 130.849C596.151 132.018 585.797 135.485 576 140.259C564.709 145.762 554.817 152.707 547.428 163C543.833 168.009 542.007 176.447 537.443 180.401C533.491 183.823 525.808 183.34 521 185.518C512.994 189.145 507.182 195.73 500 200.529C495.95 203.235 491.012 203.964 487.004 206.8C477.722 213.367 476.106 223.698 479 234C468.926 235.274 457.338 236.23 454.532 248C453.315 253.106 455.361 259.223 452.972 264C449.435 271.076 442.084 274.629 440.38 283C438.995 289.801 443.694 296.819 442.088 303C441.228 306.312 438.385 308.995 436.824 312C434.027 317.386 432.705 323.948 433.09 330C433.593 337.895 435.414 345.836 438.782 353C440.913 357.535 444.995 362.14 446.127 367C447.23 371.73 445.096 378.072 444.995 382.999C444.851 390.064 439.586 391.747 435.789 397.004C433.294 400.459 431.28 404.676 431.136 409C431.059 411.314 431.932 413.711 431.418 416C430.67 419.331 427.792 421.771 426.703 425C423.879 433.37 428.076 442.006 437 443C437.309 455.8 447.12 454.763 456 449.924C464.793 445.132 471.752 443.578 472 432C479.059 434.656 489.167 441.657 493 431C506.121 433.436 521.593 431.469 534 426.55C540.642 423.917 546.338 419.439 553 417C559.099 429.362 578.03 420.274 586 414.391C588.491 412.552 590.875 409.419 593.961 408.597C596.603 407.894 598.883 410.019 601.089 411.111C604.571 412.835 608.111 413.888 612 413.984C627.777 414.371 639.63 406.457 652 398C652.723 400.455 653.52 402.726 655.109 404.792C662.653 414.6 674.982 407.269 683.015 402.255C685.868 400.474 689.366 397.212 693 398.163C697.279 399.282 700.617 403.871 704 406.472C709.631 410.802 716.039 413.306 723 414.536C731.226 415.99 739.782 414.627 748 413.971C750.736 413.753 754.246 412.213 756.896 413.233C761.798 415.12 765.323 421.935 770 424.787C783.718 433.151 799.175 431.389 814 428C810.419 434.434 805.541 440.471 804.504 448C804.049 451.305 804.858 454.688 805 458C787.084 461.245 776.733 489.095 786.129 504.17C789.64 509.803 792.773 517.416 798.04 521.581C801.058 523.968 805.789 523.926 808.4 526.589C810.249 528.473 810.36 531.668 811.413 534C813.531 538.692 816.667 543.035 821.004 545.87C823.678 547.618 826.836 549.174 830 549.737C832.769 550.23 836.123 549.429 838.606 551.028C842.125 553.293 843.268 558.847 846.188 561.896C852.504 568.491 863.066 571.81 872 572C870.246 580.5 871.421 588.647 870.219 597C869.672 600.804 867.327 604.215 866.518 608C865.453 612.982 865.684 618.935 866.093 624C866.555 629.71 869.995 633.716 871.491 639C872.948 644.149 871.338 649.767 872.379 655C873.505 660.666 877.107 664.802 879.147 670C882.186 677.741 879.578 689.691 887.213 695.258C894.314 700.435 904.922 693.637 908.08 686.999C911.455 679.907 909.663 672.916 907 666C922.96 657.72 928.372 638.582 918 624C929.741 620.18 941.126 615.769 950.985 608.1C958.597 602.18 961.054 594.943 955 587C969.579 583.408 982.909 581.271 993.985 569.996C1000.14 563.734 1003.7 557.152 999 549C1023.55 538.724 1048.82 511.682 1053.54 485C1055.5 473.893 1053.76 461.688 1050.56 451C1047.8 441.762 1043.09 432.92 1037.65 425C1035.1 421.282 1029.99 416.807 1029.95 412C1029.91 406.801 1035.44 401.446 1037.74 397C1043.05 386.749 1047.45 375.684 1047.96 364C1048.67 347.834 1044.11 331.231 1036.74 317C1033.68 311.095 1026.85 305.496 1025.47 299C1024.57 294.766 1027.02 290.14 1027.71 286C1029.08 277.884 1029.83 269.159 1028.39 261C1021.23 220.514 982.279 183.004 940 183C949.602 160.245 928.409 140.727 908 135.478C895.489 132.261 882.348 134.177 870 137C868.489 132.268 865.587 128.77 862.41 125C858.226 120.036 853.201 114.442 847 112.005C836.922 108.045 823.765 113.012 815 118C811.831 110.287 807.943 103.739 801 98.7893C783.876 86.5819 755.049 91.2004 737 98.8719C726.115 103.498 716.394 110.458 706 116z"/>
<path style="fill:#020202; stroke:none;" d="M652 398C647.555 400.036 644.186 403.559 640 406.07C632.83 410.372 623.352 413.368 615 413.91C610.376 414.21 606.186 413.131 602.039 411.11C599.563 409.903 596.925 407.307 593.961 407.967C590.454 408.748 587.779 412.339 585 414.391C576.008 421.032 561.107 427.879 553 417C545.849 418.64 539.846 423.836 533 426.55C520.431 431.533 506.258 432.676 493 431C487.414 441.178 480.087 433.895 472 432C471.847 435.29 471.473 438.222 469.486 440.985C465.919 445.945 461.482 447.126 462.174 454.001C463.694 469.09 468.081 484.842 473.425 499C475.112 503.469 481.586 512.323 479.898 517C478.281 521.483 472.519 525.439 469 528.41C459.692 536.267 449.546 542.795 440 550.286C436.695 552.879 427.593 557.488 427.252 562.09C426.879 567.13 433.699 574.948 436.344 579C441.909 587.525 447.832 595.742 455.004 603C461.141 609.211 469.297 615.304 473.586 623C480.088 634.666 483.358 647.669 488.203 660C495.081 677.505 503.409 694.413 512.22 711C516.403 718.874 520.739 726.986 526.286 734C528.154 736.362 530.274 739.579 533.089 740.883C535.778 742.128 539.232 741.05 542 740.586C549.402 739.348 556.72 737.693 564 735.873C591.194 729.077 618.271 722.547 645 714C650.442 728.128 653.445 743.024 655.285 758C656.088 764.54 657.52 771.412 656.714 778C655.117 791.044 652.03 804.415 648.279 817C646.099 824.316 642.669 831.325 642 839C651.325 839.4 660.749 841.581 670 842.87C685.911 845.087 701.987 846.814 718 847.911C767.711 851.315 818.912 849.429 868 840.576C885.821 837.361 904.063 832.621 921 826.186C925.3 824.552 935.296 822.039 936.654 816.956C938.066 811.672 927.326 803.608 924.326 800C913.704 787.224 906.82 769.641 901.671 754C897.822 742.308 894.613 730.114 892.424 718C891.322 711.9 891.242 704.984 889.429 699.089C888.269 695.319 884.946 692.618 883.367 688.999C880.753 683.011 881.368 676.144 879.491 670C877.878 664.724 874.002 660.505 872.609 655C871.204 649.45 873.043 643.486 871.491 638C869.995 632.716 866.555 628.71 866.093 623C865.705 618.195 865.554 612.687 866.761 608C867.644 604.57 869.747 601.454 870.415 598C871.201 593.937 869.912 589.177 870.015 585C870.123 580.562 871.411 576.371 872 572C862.849 571.582 852.479 567.807 846.188 560.957C843.613 558.152 842.403 553.196 839.352 551.028C837.037 549.383 833.643 550.208 831 549.737C827.466 549.108 823.906 547.269 821.004 545.201C816.759 542.175 813.551 537.73 811.413 533C810.516 531.016 810.368 528.302 808.988 526.589C806.614 523.643 801.067 523.42 798.04 520.775C793.012 516.383 790.413 509.634 786.724 504.17C776.278 488.694 787.935 463.067 805 458C804.919 453.97 804.158 449.965 805.184 446C806.898 439.381 811.619 434.281 814 428C799.086 430.193 786.123 433.198 772 425.355C766.736 422.431 762.357 414.338 756.896 412.707C752.662 411.442 744.52 414.181 740 414.714C731.711 415.693 722.862 415.108 715 412.189C710.608 410.558 706.55 407.849 703 404.829C700.067 402.335 696.94 398.531 693 397.672C689.31 396.867 685.906 399.779 683.015 401.631C674.995 406.767 663.678 414.189 655.789 404.792C654.09 402.767 653.035 400.397 652 398z"/>
<path style="fill:#b90101; stroke:none;" d="M463.333 460.667C463.278 460.722 463.222 461.778 463.667 461.333C463.722 461.278 463.778 460.222 463.333 460.667M465 471L466 472L465 471M468 483L469 484L468 483M470 490L471 491L470 490M481 515L482 516L481 515M471 526L472 527L471 526M470 527L471 528L470 527M464 532L465 533L464 532M459 536L460 537L459 536M451 542L452 543L451 542M436 553L437 554L436 553M429 558L430 559L429 558M429 567L430 568L429 567M432 572L433 573L432 572M437 580L438 581L437 580M439 583L440 584L439 583M478 633L479 634L478 633M485 652L486 653L485 652M488 660L489 661L488 660M490 665L491 666L490 665M493 672L494 673L493 672M494 674L495 675L494 674M499 685L500 686L499 685M500 687L501 688L500 687M501 689L502 690L501 689M510 707L511 708L510 707M511 709L512 710L511 709M636 716L637 717L636 716M646 717L647 718L646 717M516 718L517 719L516 718M892 718L893 719L892 718M623 720L624 721L623 720M647 720L648 721L647 720M616 722L617 723L616 722M519 723L520 724L519 723M893 723L894 724L893 723M598 727L599 728L598 727M584 730L585 731L584 730M524 731L525 732L524 731M895 732L896 733L895 732M528 736L529 737L528 736M529 737L530 738L529 737M552 738L553 739L552 738M898 743L899 744L898 743M654.333 750.667C654.278 750.722 654.222 751.778 654.667 751.333C654.722 751.278 654.778 750.222 654.333 750.667M900 750L901 751L900 750M902 756L903 757L902 756M903 759L904 760L903 759M656 768L656 773C656.83 770.97 656.83 770.03 656 768M910 776L911 777L910 776M656 779L657 780L656 779M912 780L913 781L912 780M655.333 784.667C655.278 784.722 655.222 785.778 655.667 785.333C655.722 785.278 655.778 784.222 655.333 784.667M914 784L915 785L914 784M915 786L916 787L915 786M654 790L655 791L654 790M919 793L920 794L919 793M652 800L653 801L652 800M932 809L933 810L932 809M933 810L934 811L933 810M934 811L935 812L934 811M935 812L936 813L935 812M936 813L937 814L936 813M937 814L938 815L937 814M648 816L649 817L648 816M929 822L930 823L929 822M927 823L928 824L927 823M922 825L923 826L922 825M907 830L908 831L907 830M643 831L644 832L643 831M897 833L898 834L897 833M886 836L887 837L886 836M882 837L883 838L882 837M647 839L648 840L647 839M873 839L874 840L873 839M653 840L654 841L653 840M868 840L869 841L868 840M660 841L661 842L660 841M862 841L863 842L862 841M667 842L668 843L667 842M856 842L857 843L856 842M674 843L675 844L674 843M849 843L850 844L849 843M832 845L833 846L832 845M808.667 847.333C808.222 847.778 809.278 847.722 809.333 847.667C809.778 847.222 808.722 847.278 808.667 847.333M727 848C728.248 848.685 728.548 848.749 730 849C728.752 848.315 728.452 848.251 727 848M755 849C757.613 850.098 760.165 849.993 763 850C760.387 848.902 757.835 849.007 755 849z"/>
<path style="fill:#020202; stroke:none;" d="M671 994C668.568 992.529 664.819 992.187 663.179 989.686C660.935 986.264 662.156 980.676 663.04 977C665.783 965.602 674.08 954.337 682.039 946C704.049 922.945 734.455 906.397 766 901.081C774.426 899.661 786.021 898.142 794 901.92C811.184 910.056 808.736 936.012 803.971 951C800.321 962.485 793.563 973.282 786.572 983C777.291 995.9 764.339 1007.77 750 1014.74C742.962 1018.16 729.486 1018.62 727 1027C767.132 1026.17 802.279 988.514 813.279 952C818.993 933.032 819.639 897.64 794 893.326C782.857 891.45 770.905 893.584 760 895.801C728.501 902.203 696.526 918.583 675.289 943C667.48 951.979 658.423 963.967 656.329 976C655.451 981.045 654.48 991.689 660.214 994.257C663.486 995.722 667.625 994.427 671 994z"/>
<path style="fill:#b90101; stroke:none;" d="M766 894L767 895L766 894M798 894L799 895L798 894M761 895L762 896L761 895M802 896L803 897L802 896M749 898L750 899L749 898M806 899L807 900L806 899M769 900L770 901L769 900M763 901L764 902L763 901M758 902L759 903L758 902M734 903L735 904L734 903M802 908L803 909L802 908M813 910L814 911L813 910M731 911L732 912L731 911M413 914C414.506 914.683 415.315 914.826 417 915C415.494 914.317 414.685 914.174 413 914z"/>
<path style="fill:#020202; stroke:none;" d="M318 1085C331.532 1083 348.183 1075.66 357.815 1065.83C359.23 1064.38 360.471 1062.76 361.466 1061C368.506 1048.53 353.987 1046.36 345 1047.09C333.753 1048.02 323.614 1057.21 317.44 1066C314.732 1069.86 312.928 1076.47 308.787 1078.98C305.85 1080.75 301.328 1080.68 298 1081.05C289.443 1082.01 280.356 1081.01 272 1083C285.313 1063.25 297.35 1039.64 301.536 1016C306.564 987.605 299.548 959.194 288.862 933.001C287.378 929.364 286.714 925.524 285 922C280.787 923.693 280.695 926.806 281.761 931C283.559 938.076 286.48 945.016 288.659 952C298.38 983.153 294.379 1015.57 281.576 1045C277.668 1053.98 272.855 1062.62 267.796 1071C265.517 1074.78 263.248 1079.65 259.79 1082.49C257.021 1084.75 253.309 1085.03 250 1086.04C244.603 1087.69 239.153 1090.16 235.044 1094.1C230.552 1098.42 225.751 1108.64 230.938 1114.4C235.158 1119.08 245.229 1113.49 248.961 1110.7C256.02 1105.43 260.361 1095.2 268.039 1091.18C271.886 1089.17 276.829 1090.2 281 1089.91C290.369 1089.27 299.677 1088.18 309 1087C309 1091.92 308.365 1097.43 310.573 1102C314.502 1110.12 324.864 1111.8 333 1111.99C352.387 1112.43 372.455 1104.02 388 1092.84C393.962 1088.56 399.038 1083.2 405 1079C409.396 1097.51 425.32 1117.57 445.999 1108.32C449.323 1106.83 451.855 1104.73 454.192 1101.96C457.024 1098.6 459.264 1095.02 461 1091C465.32 1092.8 469.326 1094.81 474 1095.56C487.902 1097.8 498.768 1090.93 510 1084C515.462 1097.12 523.284 1108.92 526.338 1123C533.97 1158.19 515.2 1190.79 491 1215C482.252 1223.75 472.652 1232.8 461 1237.55C457.233 1239.08 452.104 1241.11 448.015 1239.82C438.001 1236.67 440.225 1218.69 442.289 1211C447.008 1193.42 459.471 1179.52 472 1167C477.993 1161.01 484.007 1154.82 491 1150C482.329 1146.65 469.135 1157.42 463 1162.59C445.448 1177.38 429.002 1199.04 429.002 1223C429.002 1230.33 429.953 1241.21 436.329 1246.01C442.78 1250.86 451.892 1248.74 459 1246.84C477.722 1241.85 493.891 1228.44 506.271 1214C528.649 1187.9 545.965 1155.28 537.105 1120C533.286 1104.8 525.149 1092.21 519.028 1078.04C516.298 1071.72 523.109 1064.45 518.397 1058.15C515.102 1053.74 507.844 1054.37 505.179 1059.11C502.284 1064.25 506.901 1070.69 503.508 1075.28C498.284 1082.36 487.962 1088.45 479 1086.62C475.278 1085.86 470.966 1083.8 469.619 1079.98C467.578 1074.19 473.535 1068.76 473.446 1063C473.383 1058.93 469.852 1056.55 466.039 1057.91C459.414 1060.29 459.126 1068.36 457.377 1074C455.284 1080.76 451.2 1088.15 447.251 1094C443.446 1099.63 438.859 1104.58 432.004 1100.34C424.073 1095.43 419.011 1086.41 415.604 1078C414.464 1075.18 412.435 1071.59 413.89 1068.58C415.372 1065.5 418.252 1062.87 420.138 1060C425.027 1052.57 429.75 1044.96 433.73 1037C445.287 1013.88 451 987.732 451 962C451 953.701 451.674 945.086 449.405 937C447.498 930.206 443.817 922.982 437.985 918.8C426.72 910.722 404.906 912.559 396.638 924.004C390.544 932.44 391 944.075 391 954C391 963.715 390.24 973.347 390.054 983C389.646 1004.13 392.442 1026.16 395.92 1047C396.985 1053.38 402.581 1065.38 398.642 1071C395.386 1075.65 390.381 1079.65 386 1083.2C374.306 1092.65 360.013 1101.27 345 1103.92C336.626 1105.39 323.903 1105.93 319.179 1096.96C317.34 1093.47 318 1088.82 318 1085z"/>
<path style="fill:#b90101; stroke:none;" d="M424 914C425.248 914.685 425.548 914.749 427 915C425.752 914.315 425.452 914.251 424 914M711 914L712 915L711 914M408 915L409 916L408 915z"/>
<path style="fill:#f7f7f7; stroke:none;" d="M409 1058C416.215 1050.47 421.346 1039.52 425.421 1030C435.855 1005.62 440 981.392 440 955C440 939.648 438.174 923.047 420 919.619C417.114 919.074 413.911 918.681 411 919.279C396.81 922.193 397 942.938 397 954C397 988.78 400.252 1024.2 409 1058z"/>
<path style="fill:#b90101; stroke:none;" d="M419.667 919.333C419.222 919.778 420.278 919.722 420.333 919.667C420.778 919.222 419.722 919.278 419.667 919.333M715 919L716 920L715 919M407 920L408 921L407 920M426 921L427 922L426 921M428 922L429 923L428 922M710 922L711 923L710 922M286 924L287 925L286 924M443 924L444 925L443 924M694 925L695 926L694 925M286 926L287 927L286 926M701 928L702 929L701 928M435 929L436 930L435 929M446 929L447 930L446 929M288 932L289 933L288 932M437 933L438 934L437 933M448 934L449 935L448 934M691 936L692 937L691 936M284 938L285 939L284 938M391 938L391 941C391.696 939.446 391.696 939.554 391 938M292 942L293 943L292 942M397 942L398 943L397 942M286 944L287 945L286 944M673 945L674 946L673 945z"/>
<path style="fill:#020202; stroke:none;" d="M708 946C706.394 958.778 710.614 971.28 711.83 984C713.446 1000.9 712.703 1018.04 711.961 1035C710.952 1058.04 706.495 1080.98 704.911 1104C704.154 1114.98 702.963 1125.06 705 1136C707.786 1135.58 711.258 1135.16 712.972 1132.58C715.154 1129.3 714.872 1121.88 714.986 1118C715.249 1109.02 716.124 1099.91 717.282 1091C721.046 1062.02 724.615 1031.26 721.83 1002C720.841 991.605 719.756 981.186 717.346 971C715.318 962.433 712.025 954.948 712 946L708 946z"/>
<path style="fill:#b90101; stroke:none;" d="M814 947L815 948L814 947M678 949L679 950L678 949M707 949L708 950L707 949M295 950L296 951L295 950M296 953L297 954L296 953M667 953L668 954L667 953M289 954L290 955L289 954M712 954L713 955L712 954M802 955L803 956L802 955M665 956L666 957L665 956M672 957L673 958L672 957M290 958L291 959L290 958M713 958L714 959L713 958z"/>
<path style="fill:#020202; stroke:none;" d="M1082 1034C1073.44 1034.68 1063.77 1036.57 1056 1040.33C1054.64 1040.98 1047.18 1045.61 1051.49 1047.27C1053.74 1048.13 1056.91 1046.12 1059 1045.46C1064.18 1043.85 1069.65 1043.38 1075 1042.72C1077.41 1042.42 1080.31 1041.66 1082.26 1043.61C1085.14 1046.49 1084.59 1054.14 1085.13 1058C1086.86 1070.29 1089.19 1083.31 1093.44 1095C1094.9 1099.03 1096.69 1105 1101.04 1106.8C1104.21 1108.1 1108 1105.96 1111 1105C1110.12 1096.85 1105 1089.03 1102.88 1081C1099.43 1067.89 1099.07 1053.86 1095 1041C1106.62 1040.97 1119.53 1040.22 1131 1038.41C1133.93 1037.95 1142.62 1037.12 1141.11 1032.23C1139.88 1028.25 1133.13 1028.99 1130 1029C1117.98 1029.04 1106 1031.48 1094 1032C1093.86 1014.97 1091.03 998.109 1091 981C1090.99 974.461 1088.8 967.989 1092 962C1089.79 958.762 1085.03 956.096 1082.74 961.148C1081.21 964.532 1082 969.38 1082 973C1082 985.344 1080.98 997.614 1081 1010C1081.01 1018.01 1082 1025.95 1082 1034z"/>
<path style="fill:#b90101; stroke:none;" d="M810 959L811 960L810 959M1090 959L1091 960L1090 959M298 960L299 961L298 960M670 960L671 961L670 960M714 961L715 962L714 961M291 963L292 964L291 963M299 964L300 965L299 964M715 964L716 965L715 964M898 966L897 968C898.263 967.029 898.392 967.306 898 966z"/>
<path style="fill:#020202; stroke:none;" d="M892 1075C888.931 1068.86 883.214 1068.93 877 1069C865.205 1069.14 849.009 1076.57 844.228 1088C839.043 1100.4 848.623 1111.24 860 1114.78C875.052 1119.47 891.7 1114.31 903 1104C906.228 1110.9 911.066 1118.56 918.001 1122.23C927.669 1127.35 940.559 1121.82 944 1112C961.057 1119 979.323 1117.97 993.961 1105.53C1003.39 1097.52 1012 1078.53 996 1073C992.975 1079.83 992.779 1087.8 988.362 1094C980.467 1105.08 967.396 1109.4 955 1103.19C952.06 1101.72 948.807 1099.9 947.179 1096.91C943.611 1090.36 946.951 1080.73 948.194 1074C948.586 1071.88 949.636 1067.61 946.685 1066.75C941.634 1065.28 939.406 1073.78 938.193 1077C933.78 1088.7 932.089 1099.98 941 1110C937.869 1111.3 934.512 1114.17 931 1114.05C921.963 1113.73 913.233 1098.67 911.194 1091C910.186 1087.2 910.994 1082.89 911 1079C911.013 1070.33 911.041 1061.67 910.999 1053C910.949 1042.6 908.154 1032.34 907.17 1022C906.504 1015 907.113 1008.01 906.286 1001C905.227 992.031 905.417 983.001 904.96 974C904.832 971.479 904.438 966.636 900.925 966.636C897.174 966.636 897.055 971.35 897.005 974C896.854 981.987 896.909 990.012 897.004 998C897.288 1021.93 897 1045.94 897 1070C897 1079.56 900.318 1091.32 893.671 1098.96C885.716 1108.11 874.866 1109.58 864 1105.24C858.014 1102.85 851.243 1098.39 853.704 1091C856.713 1081.96 869.009 1075.72 878 1075.21C882.924 1074.93 887.115 1076.44 892 1075z"/>
<path style="fill:#b90101; stroke:none;" d="M904.333 968.667C904.278 968.722 904.222 969.778 904.667 969.333C904.722 969.278 904.778 968.222 904.333 968.667M658 969L659 970L658 969M665 969L666 970L665 969M292 970L293 971L292 970M717 971L718 972L717 971M663 974L664 975L663 974M450 975L451 976L450 975M390 976L390 979C390.696 977.446 390.696 977.554 390 976M799 979L800 980L799 979M797 982L798 983L797 982M786 983L787 984L786 983M438 984L439 985L438 984M795 985L796 986L795 985M783 987L784 988L783 987M390 988L390 992C390.71 990.24 390.71 989.76 390 988M720.333 988.667C720.278 988.722 720.222 989.778 720.667 989.333C720.722 989.278 720.778 988.222 720.333 988.667M657 992L658 993L657 992M668 992L669 993L668 992M398 993L399 994L398 993M667.667 994.333C667.222 994.778 668.278 994.722 668.333 994.667C668.778 994.222 667.722 994.278 667.667 994.333M712 994L712 1012C713.952 1007.35 713.952 998.651 712 994M1091 994L1091 1002C1092.16 999.23 1092.16 996.77 1091 994M787 995L788 996L787 995M447.333 996.667C447.278 996.722 447.222 997.778 447.667 997.333C447.722 997.278 447.778 996.222 447.333 996.667M786 996L787 997L786 996M785 997L786 998L785 997M784 998L785 999L784 998M1135 998L1136 999L1135 998z"/>
<path style="fill:#020202; stroke:none;" d="M1129 1001C1129.25 1004.51 1128.83 1008.7 1131.09 1011.68C1134.44 1016.1 1144.33 1014.1 1146.97 1009.74C1149.56 1005.46 1146.61 999.461 1141.98 998.322C1137.64 997.252 1132.8 999.093 1129 1001z"/>
<path style="fill:#b90101; stroke:none;" d="M721 999L722 1000L721 999M783 999L784 1000L783 999M1131 999L1132 1000L1131 999M435 1000L436 1001L435 1000M445 1004L446 1005L445 1004M766 1004L767 1005L766 1004M897.333 1004.67C897.278 1004.72 897.222 1005.78 897.667 1005.33C897.722 1005.28 897.778 1004.22 897.333 1004.67M772 1009L773 1010L772 1009M391 1010L391 1013C391.696 1011.45 391.696 1011.55 391 1010M292.333 1011.67C292.278 1011.72 292.222 1012.78 292.667 1012.33C292.722 1012.28 292.778 1011.22 292.333 1011.67M768 1012L769 1013L768 1012M765 1014L766 1015L765 1014M1133 1014C1134.77 1014.78 1136.04 1014.91 1138 1015C1136.23 1014.22 1134.96 1014.09 1133 1014M401 1016L401 1019C401.696 1017.45 401.696 1017.55 401 1016M746 1016L747 1017L746 1016M760 1017L761 1018L760 1017M1081.33 1018.67C1081.28 1018.72 1081.22 1019.78 1081.67 1019.33C1081.72 1019.28 1081.78 1018.22 1081.33 1018.67M300 1020L301 1021L300 1020M440 1020L441 1021L440 1020M733 1020L734 1021L733 1020M907 1021L907 1025C907.71 1023.24 907.71 1022.76 907 1021M428 1022L429 1023L428 1022M749 1022L750 1023L749 1022M439 1023L440 1024L439 1023M1093.33 1023.67C1093.28 1023.72 1093.22 1024.78 1093.67 1024.33C1093.72 1024.28 1093.78 1023.22 1093.33 1023.67M743 1024L744 1025L743 1024M733 1026L734 1027L733 1026M298 1028L299 1029L298 1028M425 1029L426 1030L425 1029M1138 1029L1139 1030L1138 1029M403 1030L404 1031L403 1030M1098.67 1031.33C1098.22 1031.78 1099.28 1031.72 1099.33 1031.67C1099.78 1031.22 1098.72 1031.28 1098.67 1031.33M1341 1031L1342 1032L1341 1031z"/>
<path style="fill:#020202; stroke:none;" d="M1342 1031.52C1336.59 1032.67 1331.57 1035.32 1327 1038.36C1323.51 1040.67 1320.03 1043.15 1317.04 1046.09C1315.52 1047.58 1314.12 1049.19 1312.99 1051C1308.93 1057.55 1310.36 1064.56 1317.02 1068.65C1326.51 1074.47 1338.04 1076.78 1348 1081.76C1351.58 1083.55 1356.03 1085.55 1358.22 1089.09C1360.96 1093.54 1357.3 1097.73 1353.98 1100.53C1346.11 1107.18 1335.98 1109.31 1327.01 1113.91C1323.73 1115.58 1319.39 1121.46 1326.04 1121.55C1332.5 1121.64 1340.18 1118.06 1346 1115.57C1350.81 1113.52 1355.66 1111.17 1360 1108.25C1362.69 1106.44 1365.4 1104.44 1367.47 1101.91C1373.44 1094.6 1371.11 1084.2 1363.96 1078.56C1355.98 1072.27 1344.34 1070.36 1335 1066.81C1330.85 1065.23 1321.79 1063.3 1321 1057.96C1320.5 1054.57 1323.86 1051.22 1326.04 1049.09C1332.09 1043.19 1342.06 1035.85 1351 1037.47C1354.45 1038.1 1360.77 1044.3 1363.72 1042.82C1368.29 1040.53 1363.47 1034.61 1360.96 1033.01C1356.08 1029.91 1347.47 1030.35 1342 1031.52z"/>
<path style="fill:#b90101; stroke:none;" d="M1338 1032L1339 1033L1338 1032M1360 1032L1361 1033L1360 1032M286 1033L287 1034L286 1033M1142.33 1033.67C1142.28 1033.72 1142.22 1034.78 1142.67 1034.33C1142.72 1034.28 1142.78 1033.22 1142.33 1033.67M1072 1035L1073 1036L1072 1035M1141 1035L1142 1036L1141 1035M1136 1037L1137 1038L1136 1037M284 1038L285 1039L284 1038M1355 1038L1356 1039L1355 1038M294 1039L295 1040L294 1039M1357 1039L1358 1040L1357 1039M1055 1040L1056 1041L1055 1040M419 1041L420 1042L419 1041M1053 1041L1054 1042L1053 1041M430 1042L431 1043L430 1042M1076.67 1042.33C1076.22 1042.78 1077.28 1042.72 1077.33 1042.67C1077.78 1042.22 1076.72 1042.28 1076.67 1042.33M1321 1042L1322 1043L1321 1042M1364 1043L1365 1044L1364 1043M292 1044L293 1045L292 1044M281 1045L282 1046L281 1045z"/>
<path style="fill:#020202; stroke:none;" d="M772 1121C771.383 1107.53 760.01 1099.21 756.51 1087C754.52 1080.06 756.519 1072.02 760.093 1066C761.99 1062.81 764.237 1059.78 767.04 1057.33C772.161 1052.84 778.719 1051 784 1047C776.86 1043.56 769.789 1045.23 763 1048.78C742.83 1059.36 739.693 1083.09 746.029 1103C748.313 1110.18 753.962 1120.8 762 1122.68C765.415 1123.48 768.803 1122 772 1121z"/>
<path style="fill:#b90101; stroke:none;" d="M1328 1046L1329 1047L1328 1046M280 1047L281 1048L280 1047M765 1047L766 1048L765 1047M338 1048L339 1049L338 1048M763 1048L764 1049L763 1048M279 1049L280 1050L279 1049M336 1049L337 1050L336 1049M761 1049L762 1050L761 1049M779 1049L780 1050L779 1049M334 1050L335 1051L334 1050z"/>
<path style="fill:#020202; stroke:none;" d="M1264 1050.47C1242.32 1054.56 1240.96 1078.73 1246.35 1096C1248.27 1102.16 1250.89 1114.75 1259.01 1114.89C1267.25 1115.03 1268.54 1108.75 1267.71 1102C1266.91 1095.44 1265.29 1089.09 1262.72 1083C1261.01 1078.96 1257.95 1074.35 1257.31 1070C1256.34 1063.38 1264.02 1058.13 1270 1059.4C1286.54 1062.92 1289.99 1086.41 1290 1100C1290 1104.34 1287.87 1116.47 1295.04 1115.56C1306.34 1114.13 1301.41 1097.6 1301.04 1090C1300.06 1069.78 1287.39 1046.06 1264 1050.47z"/>
<path style="fill:#b90101; stroke:none;" d="M1277 1050L1278 1051L1277 1050M278 1051L279 1052L278 1051M407 1051L408 1052L407 1051M425 1051L426 1052L425 1051M758 1051L759 1052L758 1051M277 1053L278 1054L277 1053M344 1053C345.769 1053.78 347.036 1053.91 349 1054C347.231 1053.22 345.964 1053.09 344 1053M363 1053L364 1054L363 1053M1311 1053L1312 1054L1311 1053z"/>
<path style="fill:#f7f7f7; stroke:none;" d="M321 1077C332.426 1073.69 349.837 1067.24 354 1055C338.617 1050.45 326.478 1063.91 321 1077z"/>
<path style="fill:#b90101; stroke:none;" d="M423 1054L424 1055L423 1054M911 1054L911 1081C913.541 1074.95 913.541 1060.05 911 1054M327 1055L328 1056L327 1055M339 1055L340 1056L339 1055z"/>
<path style="fill:#020202; stroke:none;" d="M1222 1062C1223.19 1060.81 1223.58 1060.47 1225 1060C1221.3 1053.29 1210.41 1055.07 1204 1056.51C1188.58 1059.99 1170.41 1072.06 1174.53 1090C1179.68 1112.45 1216.49 1116.51 1231.67 1102.32C1244.99 1089.87 1236.76 1068.49 1222 1062z"/>
<path style="fill:#b90101; stroke:none;" d="M1216.67 1055.33C1216.22 1055.78 1217.28 1055.72 1217.33 1055.67C1217.78 1055.22 1216.72 1055.28 1216.67 1055.33M410 1056L411 1057L410 1056M517 1056L518 1057L517 1056M767 1056L768 1057L767 1056M1310 1056L1311 1057L1310 1056M421 1057L422 1058L421 1057M466 1057L467 1058L466 1057M518 1057L519 1058L518 1057z"/>
<path style="fill:#020202; stroke:none;" d="M1131 1059C1133.04 1068.88 1136.45 1078.46 1139.67 1088C1140.73 1091.16 1141.9 1096.96 1145.39 1098.35C1148.42 1099.56 1152.27 1097.11 1155 1096C1153.42 1086.83 1148.56 1077.43 1144.69 1069C1143.18 1065.7 1141.57 1060.9 1138.61 1058.62C1136.04 1056.64 1133.55 1057.8 1131 1059z"/>
<path style="fill:#b90101; stroke:none;" d="M751 1058L752 1059L751 1058M285 1059L286 1060L285 1059M362 1059L363 1060L362 1059M398 1059L399 1060L398 1059M896 1059L896 1078C898.02 1073.19 898.02 1063.81 896 1059M1271 1059L1272 1060L1271 1059M763 1060L764 1061L763 1060M1085 1060L1086 1061L1085 1060M1098 1060L1099 1061L1098 1060M1193 1060L1194 1061L1193 1060M1223 1060L1224 1061L1223 1060M1290 1060L1291 1061L1290 1060M273 1061L274 1062L273 1061M461 1061L462 1062L461 1061M520 1061L520 1067C520.951 1064.71 520.951 1063.29 520 1061M1191 1061L1192 1062L1191 1061M1260 1061L1261 1062L1260 1061M1275 1061L1276 1062L1275 1061M360 1062L361 1063L360 1062z"/>
<path style="fill:#020202; stroke:none;" d="M1086 1092C1079.54 1094.18 1075.04 1099.64 1069 1102.73C1058.09 1108.3 1045.86 1108.69 1034 1106.54C1031.27 1106.04 1028.55 1105.23 1026 1104.12C1010.18 1097.24 1021.57 1076.45 1032 1069.59C1034.95 1067.65 1038.73 1067.23 1042 1066C1036.01 1059.22 1027.94 1063.63 1022 1068.47C1012.13 1076.51 1002.25 1091.91 1008.57 1105C1011.66 1111.39 1018.49 1114.12 1025 1115.57C1039.19 1118.76 1056.54 1118.29 1070 1112.57C1078.88 1108.8 1088.49 1102.89 1086 1092z"/>
<path style="fill:#b90101; stroke:none;" d="M319 1063L320 1064L319 1063M1029 1063L1030 1064L1029 1063M1292 1063L1293 1064L1292 1063M1311 1063L1312 1064L1311 1063M1186 1064L1187 1065L1186 1064M1328 1064L1329 1065L1328 1064M1257 1065L1258 1066L1257 1065M343 1066L344 1067L343 1066M400 1066L401 1067L400 1066M759 1066L760 1067L759 1066M316 1067L317 1068L316 1067M1023 1067L1024 1068L1023 1067M1037 1067L1038 1068L1037 1067M1182 1067L1183 1068L1182 1067M1230 1067L1231 1068L1230 1067M1336 1067L1337 1068L1336 1067M269 1068L270 1069L269 1068M354 1068L355 1069L354 1068M745 1068L746 1069L745 1068M758 1068L759 1069L758 1068M1032 1068L1033 1069L1032 1068z"/>
<path style="fill:#f7f7f7; stroke:none;" d="M1187 1073C1184.25 1077.91 1182.46 1084.6 1185.18 1090C1190.32 1100.23 1210 1105.61 1219.9 1099.7C1231.4 1092.83 1225.33 1076.73 1216 1071.65C1210.51 1068.66 1202.12 1066.65 1196 1068.7C1192.76 1069.79 1190.32 1072.2 1187 1073z"/>
<path style="fill:#b90101; stroke:none;" d="M1206 1068L1207 1069L1206 1068M1231 1068L1232 1069L1231 1068M400 1069L401 1070L400 1069M412 1069L413 1070L412 1069M886 1069L887 1070L886 1069M1232 1069L1233 1070L1232 1069M1342 1069L1343 1070L1342 1069M279 1070L280 1071L279 1070M867 1070L868 1071L867 1070M1192 1070L1193 1071L1192 1070M1213 1070L1214 1071L1213 1070M1345 1070L1346 1071L1345 1070M744 1071L745 1072L744 1071M1087 1071L1088 1072L1087 1071M1190 1071L1191 1072L1190 1071M1348 1071L1349 1072L1348 1071M313 1072L314 1073L313 1072M518 1072L519 1073L518 1072M862 1072L863 1073L862 1072M948 1072L949 1073L948 1072M1217 1072L1218 1073L1217 1072M505 1073L506 1074L505 1073M1146 1073L1147 1074L1146 1073M312 1074L313 1075L312 1074M328 1074L329 1075L328 1074M345 1074L346 1075L345 1074M469 1074L470 1075L469 1074M858 1074L859 1075L858 1074M999 1074L1000 1075L999 1074M321 1075L322 1076L321 1075M414 1075L415 1076L414 1075M743 1075L744 1076L743 1075M806 1075C807.506 1075.68 808.315 1075.83 810 1076C808.494 1075.32 807.685 1075.17 806 1075z"/>
<path style="fill:#020202; stroke:none;" d="M810 1075.43C797.296 1076.95 784.871 1081.17 776.928 1092C767.082 1105.43 774.79 1120.85 791 1122.82C796.078 1123.43 801.916 1123.37 807 1122.83C819.415 1121.49 836.552 1113.4 841.03 1101C847.535 1082.98 824.238 1073.72 810 1075.43z"/>
<path style="fill:#b90101; stroke:none;" d="M816 1075C817.769 1075.78 819.036 1075.91 821 1076C819.231 1075.22 817.964 1075.09 816 1075M875 1075C877.613 1076.1 880.164 1075.99 883 1076C880.387 1074.9 877.835 1075.01 875 1075M1185 1075L1186 1076L1185 1075M1333 1075L1334 1076L1333 1075M1358 1075L1359 1076L1358 1075M322 1076L323 1077L322 1076M938 1076L939 1077L938 1076M1014 1076L1015 1077L1014 1076M1024 1076L1025 1077L1024 1076M1222 1076L1223 1077L1222 1076M518 1077L519 1078L518 1077M853 1077L854 1078L853 1077M337 1078L338 1079L337 1078M795 1078L796 1079L795 1078M1174 1078L1175 1079L1174 1078M1287 1078L1288 1079L1287 1078M403 1079L404 1080L403 1079M519 1079L520 1080L519 1079M993 1079L994 1080L993 1079M1343 1079L1344 1080L1343 1079M273 1080L274 1081L273 1080M402 1080L403 1081L402 1080M416 1080L417 1081L416 1080M498 1080L499 1081L498 1080M832 1080L833 1081L832 1080M862 1080L863 1081L862 1080M1261 1080L1262 1081L1261 1080M261 1081L262 1082L261 1081M291 1081C292.506 1081.68 293.315 1081.83 295 1082C293.494 1081.32 292.685 1081.17 291 1081M388 1081L389 1082L388 1081M401 1081L402 1082L401 1081M405 1081L406 1082L405 1081M789 1081L790 1082L789 1081M327 1082L328 1083L327 1082M417 1082L418 1083L417 1082M1010 1082L1011 1083L1010 1082M1103 1083L1104 1084L1103 1083M1368 1083L1369 1084L1368 1083M256 1084L257 1085L256 1084M418 1084L419 1085L418 1084M472 1084L473 1085L472 1084M492 1084L493 1085L492 1084M508 1084L509 1085L508 1084M706 1084L706 1087C706.696 1085.45 706.696 1085.55 706 1084M857 1084L858 1085L857 1084M1138 1084L1139 1085L1138 1084M251 1085L252 1086L251 1085M490 1085L491 1086L490 1085M510 1085L511 1086L510 1085z"/>
<path style="fill:#f7f7f7; stroke:none;" d="M802 1085.51C792.928 1087.37 777.202 1097.21 784.028 1108.79C788.033 1115.58 801.279 1115.8 808 1114.53C815.871 1113.05 833.546 1104.72 830.303 1094.04C827.687 1085.43 809.151 1084.05 802 1085.51z"/>
<path style="fill:#b90101; stroke:none;" d="M856 1085L857 1086L856 1085M935 1085L936 1086L935 1085M1151 1085L1152 1086L1151 1085M1369 1085L1370 1086L1369 1085M248 1086L249 1087L248 1086M419 1086L420 1087L419 1086M477 1086L478 1087L477 1086M798 1086L799 1087L798 1086M1008 1086L1009 1087L1008 1086M504 1087L505 1088L504 1087M840 1087L841 1088L840 1087M243 1088L244 1089L243 1088M393 1088L394 1089L393 1088M792 1088L793 1089L792 1088M991 1088L992 1089L991 1088M1358 1088L1359 1089L1358 1088M241 1089L242 1090L241 1089M501 1089L502 1090L501 1089M841 1089L842 1090L841 1089M843 1089L844 1090L843 1089M910 1089L911 1090L910 1089M1153 1090L1154 1091L1153 1090M1265 1090L1266 1091L1265 1090M1289 1090L1289 1111C1291.15 1105.87 1291.15 1095.13 1289 1090M389 1091L390 1092L389 1091M422 1091L423 1092L422 1091M777 1091L778 1092L777 1091M898 1091L899 1092L898 1091M1237 1091L1238 1092L1237 1091M448 1092L449 1093L448 1092M460 1092L461 1093L460 1092M787 1092L788 1093L787 1092M911 1092L912 1093L911 1092M235 1093L236 1094L235 1093M250 1093L251 1094L250 1093z"/>
<path style="fill:#f7f7f7; stroke:none;" d="M240 1106C245.647 1103.36 249.533 1098.07 253 1093C246.132 1094.74 240.819 1098.64 240 1106z"/>
<path style="fill:#b90101; stroke:none;" d="M264 1093L265 1094L264 1093M371 1093L372 1094L371 1093M466 1093L467 1094L466 1093M234 1094L235 1095L234 1094M988 1094L989 1095L988 1094M1224 1094L1225 1095L1224 1094M1266 1094L1267 1095L1266 1094M233 1095L234 1096L233 1095M446 1095L447 1096L446 1095M472.667 1095.33C472.222 1095.78 473.278 1095.72 473.333 1095.67C473.778 1095.22 472.722 1095.28 472.667 1095.33M484.667 1095.33C484.222 1095.78 485.278 1095.72 485.333 1095.67C485.778 1095.22 484.722 1095.28 484.667 1095.33M896 1095L897 1096L896 1095M1142 1095L1143 1096L1142 1095M1176 1095L1177 1096L1176 1095M426 1096L427 1097L426 1096M761 1096L762 1097L761 1096M1001 1096L1002 1097L1001 1096M1078 1096L1079 1097L1078 1096M1153 1096L1154 1097L1153 1096M1223 1096L1224 1097L1223 1096M380 1097L381 1098L380 1097M744 1097L745 1098L744 1097M1094 1097L1095 1098L1094 1097M1108 1097L1109 1098L1108 1097M1143 1097L1144 1098L1143 1097M1235 1097L1236 1098L1235 1097M248 1098L249 1099L248 1098M260 1098L261 1099L260 1098M853 1098L854 1099L853 1098M894 1098L895 1099L894 1098M230 1099L231 1100L230 1099M443 1099L444 1100L443 1099M783 1099L784 1100L783 1099M1018 1099L1019 1100L1018 1099M1220 1099L1221 1100L1220 1099M1247 1099L1248 1100L1247 1099M431 1100L432 1101L431 1100M442 1100L443 1101L442 1100M843 1100L844 1101L843 1100M935 1100L936 1101L935 1100M998 1100L999 1101L998 1100M1073 1100L1074 1101L1073 1100M1233 1100L1234 1101L1233 1100M433 1101L434 1102L433 1101M745 1101L746 1102L745 1101M764 1101L765 1102L764 1101M772.333 1101.67C772.278 1101.72 772.222 1102.78 772.667 1102.33C772.722 1102.28 772.778 1101.22 772.333 1101.67M856 1101L857 1102L856 1101M981 1101L982 1102L981 1101M1205 1101C1206.25 1101.68 1206.55 1101.75 1208 1102C1206.75 1101.32 1206.45 1101.25 1205 1101M324 1102L325 1103L324 1102M436 1102C437.506 1102.68 438.315 1102.83 440 1103C438.494 1102.32 437.685 1102.17 436 1102M453 1102L454 1103L453 1102M840 1102L841 1103L840 1102M890 1102L891 1103L890 1102M1231 1102L1232 1103L1231 1102M368 1103L369 1104L368 1103M531 1103L532 1104L531 1103M827 1103L828 1104L827 1103M844 1103L845 1104L844 1103M1183 1103L1184 1104L1183 1103M1350 1103L1351 1104L1350 1103M331.667 1104.33C331.222 1104.78 332.278 1104.72 332.333 1104.67C332.778 1104.22 331.722 1104.28 331.667 1104.33M366 1104L367 1105L366 1104M419 1104L420 1105L419 1104M704 1104L704 1108C704.71 1106.24 704.71 1105.76 704 1104M746 1104L747 1105L746 1104M861 1104L862 1105L861 1104M974 1105L975 1106L974 1105M1108 1105L1109 1106L1108 1105M1186 1105L1187 1106L1186 1105M1363 1105L1364 1106L1363 1105M253 1106L254 1107L253 1106M824 1106L825 1107L824 1106M992 1106L993 1107L992 1106M1033 1106L1034 1107L1033 1106M1080 1106L1081 1107L1080 1106M1099 1106L1100 1107L1099 1106M1188 1106L1189 1107L1188 1106M521 1107L522 1108L521 1107M879.667 1107.33C879.222 1107.78 880.278 1107.72 880.333 1107.67C880.778 1107.22 879.722 1107.28 879.667 1107.33M920 1107L921 1108L920 1107M1103 1107L1104 1108L1103 1107M768 1108L769 1109L768 1108M897 1108L898 1109L897 1108M905 1108L906 1109L905 1108M1215 1109L1216 1110L1215 1109M321 1110L322 1111L321 1110M769 1110L770 1111L769 1110M894 1110L895 1111L894 1110M986 1110L987 1111L986 1110M1335 1110L1336 1111L1335 1110M325 1111C326.248 1111.68 326.548 1111.75 328 1112C326.752 1111.32 326.452 1111.25 325 1111M341 1111C342.248 1111.68 342.548 1111.75 344 1112C342.752 1111.32 342.452 1111.25 341 1111M816 1111L817 1112L816 1111M892 1111L893 1112L892 1111M924 1111L925 1112L924 1111M984 1111L985 1112L984 1111M1014 1111L1015 1112L1014 1111M750 1112L751 1113L750 1112M814 1112L815 1113L814 1112M854 1112L855 1113L854 1112M890 1112L891 1113L890 1112M945 1112L946 1113L945 1112M1253 1112L1254 1113L1253 1112M1330 1112L1331 1113L1330 1112M856 1113L857 1114L856 1113M947 1113L948 1114L947 1113M1067 1113L1068 1114L1067 1113M535 1114L536 1115L535 1114M795 1114L796 1115L795 1114M808 1114L809 1115L808 1114M885 1114L886 1115L885 1114M930 1114L931 1115L930 1114M932 1114L933 1115L932 1114M239 1115L240 1116L239 1115M524 1115L525 1116L524 1115M771 1115L772 1116L771 1115M910 1115L911 1116L910 1115M1024 1115L1025 1116L1024 1115M1257.67 1115.33C1257.22 1115.78 1258.28 1115.72 1258.33 1115.67C1258.78 1115.22 1257.72 1115.28 1257.67 1115.33M1296 1115L1297 1116L1296 1115M967 1116L968 1117L967 1116M703 1118L703 1122C703.71 1120.24 703.71 1119.76 703 1118M772.333 1118.67C772.278 1118.72 772.222 1119.78 772.667 1119.33C772.722 1119.28 772.778 1118.22 772.333 1118.67M779 1118L780 1119L779 1118M756 1119L757 1120L756 1119M818 1119L819 1120L818 1119M915 1120L916 1121L915 1120M938 1120L939 1121L938 1120M1331 1120L1332 1121L1331 1120M769 1121L770 1122L769 1121M785 1121L786 1122L785 1121M1322 1121L1323 1122L1322 1121M714 1123L714 1129C714.951 1126.71 714.951 1125.29 714 1123M762 1123C763.248 1123.68 763.549 1123.75 765 1124C763.751 1123.32 763.452 1123.25 762 1123M920 1123L921 1124L920 1123M929.667 1123.33C929.222 1123.78 930.278 1123.72 930.333 1123.67C930.778 1123.22 929.722 1123.28 929.667 1123.33M703 1126L703 1129C703.696 1127.45 703.696 1127.55 703 1126M488.667 1148.33C488.222 1148.78 489.278 1148.72 489.333 1148.67C489.778 1148.22 488.722 1148.28 488.667 1148.33M488 1151L489 1152L488 1151M478 1152L479 1153L478 1152M472 1155L473 1156L472 1155M526.333 1156.67C526.278 1156.72 526.222 1157.78 526.667 1157.33C526.722 1157.28 526.778 1156.22 526.333 1156.67M469 1157L470 1158L469 1157M537 1158L538 1159L537 1158M463 1162L464 1163L463 1162M536 1162L537 1163L536 1162M535 1165L536 1166L535 1165M522 1169L523 1170L522 1169M531 1175L532 1176L531 1175M447 1178L448 1179L447 1178M460 1178L461 1179L460 1178M444 1182L445 1183L444 1182M456 1183L457 1184L456 1183M527 1183L528 1184L527 1183M453 1187L454 1188L453 1187M440 1188L441 1189L440 1188M511 1190L512 1191L511 1190M509 1193L510 1194L509 1193M447 1197L448 1198L447 1197M446 1199L447 1200L446 1199M504 1200L505 1201L504 1200M511 1207L512 1208L511 1207M442 1209L443 1210L442 1209M429.333 1214.67C429.278 1214.72 429.222 1215.78 429.667 1215.33C429.722 1215.28 429.778 1214.22 429.333 1214.67M505 1214L506 1215L505 1214M493 1226L494 1227L493 1226M492 1227L493 1228L492 1227M476 1228L477 1229L476 1228M429.333 1230.67C429.278 1230.72 429.222 1231.78 429.667 1231.33C429.722 1231.28 429.778 1230.22 429.333 1230.67M486 1232L487 1233L486 1232M430 1235L431 1236L430 1235M448 1240C449.248 1240.68 449.548 1240.75 451 1241C449.752 1240.32 449.452 1240.25 448 1240M474 1240L475 1241L474 1240M432 1241L433 1242L432 1241M472 1241L473 1242L472 1241M434 1244L435 1245L434 1244M460 1246L461 1247L460 1246M438 1247L439 1248L438 1247M456 1247L457 1248L456 1247M441 1248L442 1249L441 1248z"/>
</svg>
