<?xml version="1.0" encoding="UTF-8" standalone="no"?>
<!-- Generator: Adobe Illustrator 16.0.0, SVG Export Plug-In . SVG Version: 6.00 Build 0)  -->

<svg
   xmlns:dc="http://purl.org/dc/elements/1.1/"
   xmlns:cc="http://creativecommons.org/ns#"
   xmlns:rdf="http://www.w3.org/1999/02/22-rdf-syntax-ns#"
   xmlns:svg="http://www.w3.org/2000/svg"
   xmlns="http://www.w3.org/2000/svg"
   xmlns:sodipodi="http://sodipodi.sourceforge.net/DTD/sodipodi-0.dtd"
   xmlns:inkscape="http://www.inkscape.org/namespaces/inkscape"
   version="1.1"
   id="Capa_1"
   x="0px"
   y="0px"
   width="715.43738"
   height="180.80188"
   viewBox="0 0 715.43738 180.80187"
   enable-background="new 0 0 841.89 595.275"
   xml:space="preserve"
   inkscape:version="0.48.4 r9939"
   sodipodi:docname="stradivarius-logo.svg"><metadata
   id="metadata65"><rdf:RDF><cc:Work
       rdf:about=""><dc:format>image/svg+xml</dc:format><dc:type
         rdf:resource="http://purl.org/dc/dcmitype/StillImage" /><dc:title></dc:title></cc:Work></rdf:RDF></metadata><defs
   id="defs63" /><sodipodi:namedview
   pagecolor="#ffffff"
   bordercolor="#666666"
   borderopacity="1"
   objecttolerance="10"
   gridtolerance="10"
   guidetolerance="10"
   inkscape:pageopacity="0"
   inkscape:pageshadow="2"
   inkscape:window-width="1366"
   inkscape:window-height="705"
   id="namedview61"
   showgrid="false"
   showguides="true"
   inkscape:guide-bbox="true"
   fit-margin-top="0"
   fit-margin-left="0"
   fit-margin-right="0"
   fit-margin-bottom="0"
   inkscape:zoom="0.38009716"
   inkscape:cx="357.91701"
   inkscape:cy="90.42759"
   inkscape:window-x="-8"
   inkscape:window-y="-8"
   inkscape:window-maximized="1"
   inkscape:current-layer="Capa_1" />
<g
   id="g3"
   transform="translate(-63.028,-207.26318)">
	<path
   clip-rule="evenodd"
   d="m 109.479,294.228 v 18.458 c 0,0.243 -0.127,0.43 -0.346,0.525 -0.268,0.146 -0.584,0.033 -0.729,-0.237 -0.851,-1.681 -1.397,-3.639 -1.573,-5.701 -0.527,-4.588 0.15,-9.307 1.693,-13.411 0.125,-0.275 0.341,-0.44 0.567,-0.339 0.224,0.063 0.388,0.705 0.388,0.705 z m 6.134,-57.305 c 2.152,0.188 4.289,0.589 6.395,1.2 1.754,9.924 -0.892,17.625 -2.067,21.117 -0.831,2.469 -1.829,4.875 -2.986,7.201 -0.014,0 -0.014,0 -0.014,0 -0.136,0.243 -0.362,0.392 -0.613,0.392 -0.398,0 -0.714,-0.335 -0.714,-0.743 v -29.167 z m -9.373,109.599 c -4.521,-0.808 -8.678,-2.507 -12.793,-5.192 -22.684,-14.812 -28.503,-46.74 -20.523,-70.894 4.025,-12.19 12.313,-23.663 23.719,-29.613 4.169,-2.154 8.504,-3.44 12.851,-3.867 l -0.015,38.771 c -0.346,1.578 -0.965,3.146 -1.807,4.584 -0.649,1.082 -1.361,2.136 -2.16,3.147 -0.6,0.763 -1.211,1.504 -1.84,2.233 -1.972,2.315 -3.76,4.725 -5.343,7.277 -1.687,2.767 -2.955,5.767 -3.749,8.866 -0.31,1.117 -0.564,2.236 -0.765,3.362 -1.789,10.082 2.223,22.358 13.822,24.138 0.321,0.049 0.646,0.09 0.977,0.123 0.21,0.016 0.401,0.111 0.53,0.261 0.141,0.171 0.204,0.369 0.172,0.556 0,0 -0.031,0.204 -0.118,0.759 -0.82,5.289 -1.842,10.667 -2.958,15.489 z m 13.894,-115.29 c -1.486,-0.281 -2.994,-0.481 -4.521,-0.595 v -5.885 c 0,-0.325 0.204,-0.585 0.502,-0.691 0.294,-0.08 0.611,0.069 0.773,0.318 0.215,0.355 0.398,0.697 0.601,1.055 0.373,0.673 0.723,1.35 1.045,2.025 0.614,1.279 1.145,2.539 1.6,3.773 z m 30.886,35.613 c -5.845,3.1 -9.568,9.348 -9.926,16.078 -0.606,11.405 8.951,18.09 17.235,23.749 0.582,0.398 1.146,0.779 1.681,1.143 3.003,2.04 7.335,5.115 8.705,7.913 0.524,1.098 0.771,2.327 0.6,3.751 -0.384,3.202 -3.524,5.227 -6.639,5.22 -1.681,-0.003 -3.418,-0.463 -4.866,-1.179 -3.894,-1.921 -7.123,-4.47 -9.327,-8.177 -1.475,-2.479 -2.52,-4.858 -3.428,-7.603 H 141.9 l 1.104,23.211 c 0,0 0,0 0.008,0 -6.902,8.801 -16.507,15.282 -28.039,16.055 0.563,-5.646 0.779,-10.14 0.842,-11.808 0.032,-0.846 0.055,-1.678 0.068,-2.494 0.025,-1.006 0.044,-2.006 0.044,-3.011 0,-0.35 0.213,-0.624 0.557,-0.697 4.229,-1.116 8.109,-3.087 11.369,-5.791 4.363,-3.677 7.343,-8.545 8.487,-13.924 0.548,-2.679 0.503,-5.416 -0.17,-8.071 -0.536,-1.901 -1.599,-3.632 -3.067,-5.019 -1.808,-1.727 -4.07,-2.999 -6.573,-3.662 -0.833,-0.207 -1.701,-0.339 -2.563,-0.402 -1.355,-0.05 -2.738,0.063 -4.056,0.362 -1.277,0.255 -2.211,1.274 -2.246,2.488 -0.008,0.961 0.405,1.876 1.177,2.54 0.374,0.276 0.785,0.49 1.205,0.658 0.675,0.287 1.305,0.634 1.861,1.076 0.871,0.695 1.487,1.626 1.801,2.614 0.427,1.504 0.381,3.05 -0.141,4.517 -0.548,1.63 -1.522,3.122 -2.814,4.349 -1.117,1.11 -3.706,3.065 -4.751,2.441 -0.234,-0.14 -0.39,-0.383 -0.39,-0.657 v -27.374 c 1.863,-3.166 2.86,-6.325 4.57,-9.522 1.36,-2.506 2.749,-4.98 4.16,-7.438 5.321,-9.266 8.305,-17.146 8.878,-24.532 4.901,3.433 8.638,7.301 12.023,12.417 2.323,3.553 4.242,7.126 5.776,10.779 z m 1.383,61.708 c 6.633,2.296 13.062,3.747 19.598,1.152 2.287,-0.908 4.451,-2.3 6.421,-4.274 3.925,-3.934 6.133,-9.579 6.165,-15.116 0.049,-8.501 -4.627,-13.328 -10.999,-18.214 -4.699,-3.603 -11.167,-7.455 -15.427,-11.374 -2.231,-2.054 -4.105,-5.582 -1.208,-8.169 1.644,-1.467 4.379,-1.818 6.445,-1.431 1.873,0.352 3.818,1.195 5.506,2.283 4.376,2.644 7.401,8.871 9.343,13.492 h 3.125 l -1.041,-22.088 h -3 c 0,0 -1.657,3.165 -3.652,3.304 -0.998,0.07 -2.075,-0.491 -3.566,-1.235 -0.695,-0.348 -1.406,-0.652 -2.127,-0.914 -3.238,-1.177 -7.172,-1.568 -10.92,-1.037 -5.072,-12.821 -13.635,-23.128 -24.15,-29.009 -0.771,-4.798 -2.641,-9.516 -5.629,-14.425 -0.735,-1.209 -1.546,-2.427 -2.435,-3.656 -1.94,-2.684 -7.981,-10.652 -11.926,-10.512 -0.701,0.025 -1.474,0.17 -2.027,0.43 -0.448,0.252 -0.81,0.632 -0.998,1.101 -0.19,0.449 -0.321,0.907 -0.356,1.4 -0.065,0.483 -0.024,0.987 -0.04,1.506 l -0.008,18.878 c -25.896,1.989 -46.404,28.695 -46.404,61.348 0,30.6 18.008,55.976 41.583,60.685 -0.83,2.946 -1.685,5.475 -2.527,7.362 l -0.937,2.1 c -1.433,2.984 -2.979,5.376 -4.59,6.971 -0.418,0.41 -0.856,0.782 -1.334,1.152 -0.77,0.62 -1.614,1.171 -2.514,1.645 -0.852,0.415 -1.787,0.735 -2.724,0.936 -0.503,0.093 -1.011,0.115 -1.5,0.056 -0.798,-0.107 -1.471,-0.52 -1.904,-1.144 -0.419,-0.586 -0.542,-1.358 -0.351,-2.059 0.27,-0.827 0.752,-1.596 1.442,-2.181 0.936,-0.821 2.194,-1.333 3.492,-1.365 0.427,-0.033 0.858,-0.023 1.279,0.026 0.53,0.047 1.065,0.047 1.599,0 0.41,-0.038 0.792,-0.162 1.161,-0.337 0.704,-0.429 1.104,-1.143 1.07,-1.943 0.016,-0.337 -0.081,-0.677 -0.321,-0.946 -0.288,-0.373 -0.666,-0.676 -1.091,-0.879 -1.287,-0.613 -2.671,-0.977 -4.088,-1.061 -1.632,-0.112 -3.248,0.04 -4.816,0.447 -1.801,0.426 -3.528,1.119 -5.082,2.043 l -1.361,0.813 c -1.62,1.023 -2.99,2.322 -4.018,3.833 -1.229,1.846 -1.919,3.945 -1.967,6.102 -0.296,13.307 17.001,16.24 25.964,11.857 10.919,-5.339 13.105,-20.656 14.668,-32.677 15.646,-0.628 29.459,-10.268 38.177,-24.876 z"
   id="path5"
   inkscape:connector-curvature="0"
   style="fill-rule:evenodd" />
	<path
   d="m 109.479,294.228 v 18.458 c 0,0.243 -0.127,0.43 -0.346,0.525 -0.268,0.146 -0.584,0.033 -0.729,-0.237 -0.851,-1.681 -1.397,-3.639 -1.573,-5.701 -0.527,-4.588 0.15,-9.307 1.693,-13.411 0.125,-0.275 0.341,-0.44 0.567,-0.339 0.224,0.063 0.388,0.705 0.388,0.705 z m 6.134,-57.305 c 2.152,0.188 4.289,0.589 6.395,1.2 1.754,9.924 -0.892,17.625 -2.067,21.117 -0.831,2.469 -1.829,4.875 -2.986,7.201 -0.014,0 -0.014,0 -0.014,0 -0.136,0.243 -0.362,0.392 -0.613,0.392 -0.398,0 -0.714,-0.335 -0.714,-0.743 v -29.167 z m -9.373,109.599 c -4.521,-0.808 -8.678,-2.507 -12.793,-5.192 -22.684,-14.812 -28.503,-46.74 -20.523,-70.894 4.025,-12.19 12.313,-23.663 23.719,-29.613 4.169,-2.154 8.504,-3.44 12.851,-3.867 l -0.015,38.771 c -0.346,1.578 -0.965,3.146 -1.807,4.584 -0.649,1.082 -1.361,2.136 -2.16,3.147 -0.6,0.763 -1.211,1.504 -1.84,2.233 -1.972,2.315 -3.76,4.725 -5.343,7.277 -1.687,2.767 -2.955,5.767 -3.749,8.866 -0.31,1.117 -0.564,2.236 -0.765,3.362 -1.789,10.082 2.223,22.358 13.822,24.138 0.321,0.049 0.646,0.09 0.977,0.123 0.21,0.016 0.401,0.111 0.53,0.261 0.141,0.171 0.204,0.369 0.172,0.556 0,0 -0.031,0.204 -0.118,0.759 -0.82,5.289 -1.842,10.667 -2.958,15.489 z m 13.894,-115.29 c -1.486,-0.281 -2.994,-0.481 -4.521,-0.595 v -5.885 c 0,-0.325 0.204,-0.585 0.502,-0.691 0.294,-0.08 0.611,0.069 0.773,0.318 0.215,0.355 0.398,0.697 0.601,1.055 0.373,0.673 0.723,1.35 1.045,2.025 0.614,1.279 1.145,2.539 1.6,3.773 z m 30.886,35.613 c -5.845,3.1 -9.568,9.348 -9.926,16.078 -0.606,11.405 8.951,18.09 17.235,23.749 0.582,0.398 1.146,0.779 1.681,1.143 3.003,2.04 7.335,5.115 8.705,7.913 0.524,1.098 0.771,2.327 0.6,3.751 -0.384,3.202 -3.524,5.227 -6.639,5.22 -1.681,-0.003 -3.418,-0.463 -4.866,-1.179 -3.894,-1.921 -7.123,-4.47 -9.327,-8.177 -1.475,-2.479 -2.52,-4.858 -3.428,-7.603 H 141.9 l 1.104,23.211 c 0,0 0,0 0.008,0 -6.902,8.801 -16.507,15.282 -28.039,16.055 0.563,-5.646 0.779,-10.14 0.842,-11.808 0.032,-0.846 0.055,-1.678 0.068,-2.494 0.025,-1.006 0.044,-2.006 0.044,-3.011 0,-0.35 0.213,-0.624 0.557,-0.697 4.229,-1.116 8.109,-3.087 11.369,-5.791 4.363,-3.677 7.343,-8.545 8.487,-13.924 0.548,-2.679 0.503,-5.416 -0.17,-8.071 -0.536,-1.901 -1.599,-3.632 -3.067,-5.019 -1.808,-1.727 -4.07,-2.999 -6.573,-3.662 -0.833,-0.207 -1.701,-0.339 -2.563,-0.402 -1.355,-0.05 -2.738,0.063 -4.056,0.362 -1.277,0.255 -2.211,1.274 -2.246,2.488 -0.008,0.961 0.405,1.876 1.177,2.54 0.374,0.276 0.785,0.49 1.205,0.658 0.675,0.287 1.305,0.634 1.861,1.076 0.871,0.695 1.487,1.626 1.801,2.614 0.427,1.504 0.381,3.05 -0.141,4.517 -0.548,1.63 -1.522,3.122 -2.814,4.349 -1.117,1.11 -3.706,3.065 -4.751,2.441 -0.234,-0.14 -0.39,-0.383 -0.39,-0.657 v -27.374 c 1.863,-3.166 2.86,-6.325 4.57,-9.522 1.36,-2.506 2.749,-4.98 4.16,-7.438 5.321,-9.266 8.305,-17.146 8.878,-24.532 4.901,3.433 8.638,7.301 12.023,12.417 2.323,3.553 4.242,7.126 5.776,10.779 z m 1.383,61.708 c 6.633,2.296 13.062,3.747 19.598,1.152 2.287,-0.908 4.451,-2.3 6.421,-4.274 3.925,-3.934 6.133,-9.579 6.165,-15.116 0.049,-8.501 -4.627,-13.328 -10.999,-18.214 -4.699,-3.603 -11.167,-7.455 -15.427,-11.374 -2.231,-2.054 -4.105,-5.582 -1.208,-8.169 1.644,-1.467 4.379,-1.818 6.445,-1.431 1.873,0.352 3.818,1.195 5.506,2.283 4.376,2.644 7.401,8.871 9.343,13.492 h 3.125 l -1.041,-22.088 h -3 c 0,0 -1.657,3.165 -3.652,3.304 -0.998,0.07 -2.075,-0.491 -3.566,-1.235 -0.695,-0.348 -1.406,-0.652 -2.127,-0.914 -3.238,-1.177 -7.172,-1.568 -10.92,-1.037 -5.072,-12.821 -13.635,-23.128 -24.15,-29.009 -0.771,-4.798 -2.641,-9.516 -5.629,-14.425 -0.735,-1.209 -1.546,-2.427 -2.435,-3.656 -1.94,-2.684 -7.981,-10.652 -11.926,-10.512 -0.701,0.025 -1.474,0.17 -2.027,0.43 -0.448,0.252 -0.81,0.632 -0.998,1.101 -0.19,0.449 -0.321,0.907 -0.356,1.4 -0.065,0.483 -0.024,0.987 -0.04,1.506 l -0.008,18.878 c -25.896,1.989 -46.404,28.695 -46.404,61.348 0,30.6 18.008,55.976 41.583,60.685 -0.83,2.946 -1.685,5.475 -2.527,7.362 l -0.937,2.1 c -1.433,2.984 -2.979,5.376 -4.59,6.971 -0.418,0.41 -0.856,0.782 -1.334,1.152 -0.77,0.62 -1.614,1.171 -2.514,1.645 -0.852,0.415 -1.787,0.735 -2.724,0.936 -0.503,0.093 -1.011,0.115 -1.5,0.056 -0.798,-0.107 -1.471,-0.52 -1.904,-1.144 -0.419,-0.586 -0.542,-1.358 -0.351,-2.059 0.27,-0.827 0.752,-1.596 1.442,-2.181 0.936,-0.821 2.194,-1.333 3.492,-1.365 0.427,-0.033 0.858,-0.023 1.279,0.026 0.53,0.047 1.065,0.047 1.599,0 0.41,-0.038 0.792,-0.162 1.161,-0.337 0.704,-0.429 1.104,-1.143 1.07,-1.943 0.016,-0.337 -0.081,-0.677 -0.321,-0.946 -0.288,-0.373 -0.666,-0.676 -1.091,-0.879 -1.287,-0.613 -2.671,-0.977 -4.088,-1.061 -1.632,-0.112 -3.248,0.04 -4.816,0.447 -1.801,0.426 -3.528,1.119 -5.082,2.043 l -1.361,0.813 c -1.62,1.023 -2.99,2.322 -4.018,3.833 -1.229,1.846 -1.919,3.945 -1.967,6.102 -0.296,13.307 17.001,16.24 25.964,11.857 10.919,-5.339 13.105,-20.656 14.668,-32.677 15.646,-0.628 29.459,-10.268 38.177,-24.876 z"
   id="path7"
   inkscape:connector-curvature="0"
   style="fill:none;stroke:#000000;stroke-width:0.13" />
	<path
   clip-rule="evenodd"
   d="m 632.362,272.092 c 0.504,0.131 0.919,0.285 1.385,0.517 0.5,0.244 0.879,0.536 1.243,0.954 0.392,0.528 0.63,1.043 0.781,1.682 0.183,0.723 0.3,1.344 0.396,2.084 0.166,1.491 0.232,2.759 0.22,4.26 v 32.947 c 0.005,1.928 -0.077,4.493 -0.662,6.392 -0.119,0.399 -0.281,0.72 -0.531,1.054 -0.682,0.764 -1.425,1.265 -2.389,1.61 -1.3,0.464 -2.343,0.57 -3.747,0.593 v 5.111 h 34.054 V 324.2 c -1.744,-0.059 -4.769,-0.382 -6.005,-1.914 -0.391,-0.527 -0.628,-0.762 -0.777,-1.399 -0.18,-0.725 -0.297,-1.345 -0.391,-2.086 -0.165,-1.492 -0.23,-2.761 -0.217,-4.262 v -48.006 h -26.664 v 5.112 c 1.173,0.042 2.162,0.175 3.304,0.447 z"
   id="path9"
   inkscape:connector-curvature="0"
   style="fill-rule:evenodd" />
	<path
   d="m 632.362,272.092 c 0.504,0.131 0.919,0.285 1.385,0.517 0.5,0.244 0.879,0.536 1.243,0.954 0.392,0.528 0.63,1.043 0.781,1.682 0.183,0.723 0.3,1.344 0.396,2.084 0.166,1.491 0.232,2.759 0.22,4.26 v 32.947 c 0.005,1.928 -0.077,4.493 -0.662,6.392 -0.119,0.399 -0.281,0.72 -0.531,1.054 -0.682,0.764 -1.425,1.265 -2.389,1.61 -1.3,0.464 -2.343,0.57 -3.747,0.593 v 5.111 h 34.054 V 324.2 c -1.744,-0.059 -4.769,-0.382 -6.005,-1.914 -0.391,-0.527 -0.628,-0.762 -0.777,-1.399 -0.18,-0.725 -0.297,-1.345 -0.391,-2.086 -0.165,-1.492 -0.23,-2.761 -0.217,-4.262 v -48.006 h -26.664 v 5.112 c 1.173,0.042 2.162,0.175 3.304,0.447 z"
   id="path11"
   inkscape:connector-curvature="0"
   style="fill:none;stroke:#000000;stroke-width:0.13" />
	<path
   clip-rule="evenodd"
   d="m 700.544,272.212 c 1.818,0.579 2.384,1.484 2.385,1.485 1.045,1.411 1.185,5.985 1.177,8.411 V 312.3 c -0.823,1.172 -1.556,2.133 -2.469,3.236 -1.056,1.268 -2.207,2.509 -3.587,3.437 -1.228,0.814 -2.485,1.186 -3.959,1.168 -1.036,-0.005 -1.963,-0.266 -2.803,-0.889 -1.488,-1.104 -1.998,-2.919 -2.146,-4.676 -0.068,-0.759 -0.114,-1.402 -0.154,-2.163 -0.062,-1.468 -0.086,-2.708 -0.082,-4.177 v -41.703 h -25.938 v 5.067 c 1.087,0.116 1.996,0.299 3.044,0.612 0.805,0.248 1.829,0.738 2.382,1.485 1.046,1.412 1.184,5.985 1.177,8.411 v 22.839 c -0.007,3.753 0.099,6.965 0.5,10.604 0.168,1.618 0.435,2.972 0.896,4.532 l 0.004,0.012 c 1.002,3.187 3.021,5.716 5.563,7.737 2.805,2.273 5.897,3.352 9.512,3.316 5.785,-0.018 10.436,-1.941 14.728,-5.848 1.239,-1.119 2.231,-2.125 3.334,-3.379 v 7.374 h 25.935 v -4.752 c -1.086,-0.098 -1.994,-0.271 -3.039,-0.578 -0.81,-0.247 -1.802,-0.737 -2.352,-1.478 -1.075,-1.447 -1.219,-6.044 -1.211,-8.509 v -47.447 h -25.939 v 5.067 c 1.085,0.118 1.995,0.301 3.042,0.614 z"
   id="path13"
   inkscape:connector-curvature="0"
   style="fill-rule:evenodd" />
	<path
   d="m 700.544,272.212 c 1.818,0.579 2.384,1.484 2.385,1.485 1.045,1.411 1.185,5.985 1.177,8.411 V 312.3 c -0.823,1.172 -1.556,2.133 -2.469,3.236 -1.056,1.268 -2.207,2.509 -3.587,3.437 -1.228,0.814 -2.485,1.186 -3.959,1.168 -1.036,-0.005 -1.963,-0.266 -2.803,-0.889 -1.488,-1.104 -1.998,-2.919 -2.146,-4.676 -0.068,-0.759 -0.114,-1.402 -0.154,-2.163 -0.062,-1.468 -0.086,-2.708 -0.082,-4.177 v -41.703 h -25.938 v 5.067 c 1.087,0.116 1.996,0.299 3.044,0.612 0.805,0.248 1.829,0.738 2.382,1.485 1.046,1.412 1.184,5.985 1.177,8.411 v 22.839 c -0.007,3.753 0.099,6.965 0.5,10.604 0.168,1.618 0.435,2.972 0.896,4.532 l 0.004,0.012 c 1.002,3.187 3.021,5.716 5.563,7.737 2.805,2.273 5.897,3.352 9.512,3.316 5.785,-0.018 10.436,-1.941 14.728,-5.848 1.239,-1.119 2.231,-2.125 3.334,-3.379 v 7.374 h 25.935 v -4.752 c -1.086,-0.098 -1.994,-0.271 -3.039,-0.578 -0.81,-0.247 -1.802,-0.737 -2.352,-1.478 -1.075,-1.447 -1.219,-6.044 -1.211,-8.509 v -47.447 h -25.939 v 5.067 c 1.085,0.118 1.995,0.301 3.042,0.614 z"
   id="path15"
   inkscape:connector-curvature="0"
   style="fill:none;stroke:#000000;stroke-width:0.13" />
	<path
   clip-rule="evenodd"
   d="m 542.009,296.176 v 2.93 c 0,4.922 0,14.397 0,14.397 -0.579,0.437 -1.127,0.813 -1.707,1.166 -1.721,1.047 -3.489,1.879 -5.551,1.86 -3.179,-0.03 -5.912,-2.113 -6.039,-5.704 -0.08,-2.197 0.963,-4.476 2.442,-6.261 2.459,-2.964 5.726,-5.397 9.201,-7.425 l 1.654,-0.963 z m 0.143,24.504 c 0.199,1.105 0.466,2.022 0.888,3.063 0.623,1.546 1.473,2.729 2.739,3.813 1.187,0.998 2.384,1.619 3.884,2.016 1.588,0.432 2.982,0.608 4.629,0.587 7.357,-0.033 12.059,-3.714 15.762,-9.325 l -3.115,-2.823 c -0.723,1.032 -2.496,2.719 -3.967,2.249 -0.883,-0.282 -1.489,-1.324 -1.602,-3.181 -0.072,-1.188 -0.101,-2.087 -0.096,-3.34 l 10e-4,-23.976 c 0.004,-1.942 -0.022,-3.582 -0.089,-5.522 -0.047,-1.8 -0.16,-3.317 -0.381,-5.103 -0.079,-0.657 -0.26,-1.668 -0.475,-2.295 -0.623,-1.743 -1.425,-3.123 -2.629,-4.53 -2.88,-3.371 -6.375,-5.744 -10.603,-6.763 -2.619,-0.634 -4.901,-0.894 -7.597,-0.863 -5.023,-0.014 -9.28,0.696 -14.027,2.337 -1.993,0.677 -3.618,1.421 -5.432,2.489 -2.051,1.203 -3.623,2.504 -5.185,4.296 -1.137,1.291 -1.942,2.521 -2.671,4.078 -0.066,0.142 -0.13,0.287 -0.191,0.434 -2.074,4.917 -0.67,9.614 2.981,12.057 3.829,2.561 9.728,2.419 13.048,-0.87 3.254,-3.224 2.96,-8.103 -0.127,-11.308 -1.83,-1.9 -2.458,-3.202 -1.109,-4.435 0.623,-0.57 1.445,-1.039 2.375,-1.405 3.822,-1.508 11.065,-1.92 12.366,3.475 0.099,0.407 0.162,0.813 0.2,1.264 0.078,0.787 0.132,1.453 0.182,2.243 0.072,1.513 0.101,2.792 0.096,4.307 v 5.787 c -4.178,1.928 -7.665,3.642 -11.743,5.772 -3.593,1.875 -6.986,3.811 -10.323,6.067 -5.632,3.806 -10.168,8.94 -10.181,16.22 -0.007,3.619 1.179,6.619 3.62,9.047 2.496,2.479 5.666,3.662 9.064,3.617 1.917,-0.016 3.538,-0.265 5.372,-0.825 1.968,-0.6 3.577,-1.281 5.377,-2.274 3.245,-1.784 6.175,-3.958 8.959,-6.38 z"
   id="path17"
   inkscape:connector-curvature="0"
   style="fill-rule:evenodd" />
	<path
   d="m 542.009,296.176 v 2.93 c 0,4.922 0,14.397 0,14.397 -0.579,0.437 -1.127,0.813 -1.707,1.166 -1.721,1.047 -3.489,1.879 -5.551,1.86 -3.179,-0.03 -5.912,-2.113 -6.039,-5.704 -0.08,-2.197 0.963,-4.476 2.442,-6.261 2.459,-2.964 5.726,-5.397 9.201,-7.425 l 1.654,-0.963 z m 0.143,24.504 c 0.199,1.105 0.466,2.022 0.888,3.063 0.623,1.546 1.473,2.729 2.739,3.813 1.187,0.998 2.384,1.619 3.884,2.016 1.588,0.432 2.982,0.608 4.629,0.587 7.357,-0.033 12.059,-3.714 15.762,-9.325 l -3.115,-2.823 c -0.723,1.032 -2.496,2.719 -3.967,2.249 -0.883,-0.282 -1.489,-1.324 -1.602,-3.181 -0.072,-1.188 -0.101,-2.087 -0.096,-3.34 l 10e-4,-23.976 c 0.004,-1.942 -0.022,-3.582 -0.089,-5.522 -0.047,-1.8 -0.16,-3.317 -0.381,-5.103 -0.079,-0.657 -0.26,-1.668 -0.475,-2.295 -0.623,-1.743 -1.425,-3.123 -2.629,-4.53 -2.88,-3.371 -6.375,-5.744 -10.603,-6.763 -2.619,-0.634 -4.901,-0.894 -7.597,-0.863 -5.023,-0.014 -9.28,0.696 -14.027,2.337 -1.993,0.677 -3.618,1.421 -5.432,2.489 -2.051,1.203 -3.623,2.504 -5.185,4.296 -1.137,1.291 -1.942,2.521 -2.671,4.078 -0.066,0.142 -0.13,0.287 -0.191,0.434 -2.074,4.917 -0.67,9.614 2.981,12.057 3.829,2.561 9.728,2.419 13.048,-0.87 3.254,-3.224 2.96,-8.103 -0.127,-11.308 -1.83,-1.9 -2.458,-3.202 -1.109,-4.435 0.623,-0.57 1.445,-1.039 2.375,-1.405 3.822,-1.508 11.065,-1.92 12.366,3.475 0.099,0.407 0.162,0.813 0.2,1.264 0.078,0.787 0.132,1.453 0.182,2.243 0.072,1.513 0.101,2.792 0.096,4.307 v 5.787 c -4.178,1.928 -7.665,3.642 -11.743,5.772 -3.593,1.875 -6.986,3.811 -10.323,6.067 -5.632,3.806 -10.168,8.94 -10.181,16.22 -0.007,3.619 1.179,6.619 3.62,9.047 2.496,2.479 5.666,3.662 9.064,3.617 1.917,-0.016 3.538,-0.265 5.372,-0.825 1.968,-0.6 3.577,-1.281 5.377,-2.274 3.245,-1.784 6.175,-3.958 8.959,-6.38 z"
   id="path19"
   inkscape:connector-curvature="0"
   style="fill:none;stroke:#000000;stroke-width:0.13" />
	<path
   clip-rule="evenodd"
   d="m 488.653,266.534 v 5.091 c 0.596,0.008 1.137,0.039 1.684,0.097 3.506,0.376 5.326,1.594 4.72,5.356 -0.611,3.784 -3.046,9.247 -3.757,11.028 l -6.596,15.973 -9.703,-21.708 c -1.361,-4.261 -4.822,-9.263 0.74,-10.529 0.889,-0.202 1.875,-0.208 2.733,-0.196 v -5.112 h -33.526 v 4.821 c 1.682,0.294 3.799,0.903 4.953,2.227 0.686,0.81 1.196,1.552 1.707,2.482 0.543,0.966 0.982,1.792 1.48,2.782 0.947,1.931 1.705,3.583 2.55,5.561 l 20.352,46.743 h 3.75 l 20.539,-48.225 c 0.982,-2.341 2.148,-4 3.365,-6.293 0.287,-0.525 0.538,-0.964 0.844,-1.478 0.349,-0.601 0.703,-1.075 1.181,-1.581 0.588,-0.571 1.17,-0.971 1.914,-1.317 1.004,-0.463 1.82,-0.627 2.938,-0.772 v -4.95 h -21.868 z"
   id="path21"
   inkscape:connector-curvature="0"
   style="fill-rule:evenodd" />
	<path
   d="m 488.653,266.534 v 5.091 c 0.596,0.008 1.137,0.039 1.684,0.097 3.506,0.376 5.326,1.594 4.72,5.356 -0.611,3.784 -3.046,9.247 -3.757,11.028 l -6.596,15.973 -9.703,-21.708 c -1.361,-4.261 -4.822,-9.263 0.74,-10.529 0.889,-0.202 1.875,-0.208 2.733,-0.196 v -5.112 h -33.526 v 4.821 c 1.682,0.294 3.799,0.903 4.953,2.227 0.686,0.81 1.196,1.552 1.707,2.482 0.543,0.966 0.982,1.792 1.48,2.782 0.947,1.931 1.705,3.583 2.55,5.561 l 20.352,46.743 h 3.75 l 20.539,-48.225 c 0.982,-2.341 2.148,-4 3.365,-6.293 0.287,-0.525 0.538,-0.964 0.844,-1.478 0.349,-0.601 0.703,-1.075 1.181,-1.581 0.588,-0.571 1.17,-0.971 1.914,-1.317 1.004,-0.463 1.82,-0.627 2.938,-0.772 v -4.95 h -21.868 z"
   id="path23"
   inkscape:connector-curvature="0"
   style="fill:none;stroke:#000000;stroke-width:0.13" />
	<path
   clip-rule="evenodd"
   d="m 416.896,272.092 c 0.504,0.131 0.919,0.285 1.385,0.517 0.499,0.244 0.879,0.536 1.243,0.954 0.391,0.528 0.63,1.043 0.781,1.682 0.182,0.723 0.3,1.344 0.396,2.084 0.166,1.491 0.232,2.759 0.219,4.26 v 32.947 c 0.006,1.928 -0.076,4.493 -0.662,6.392 -0.119,0.399 -0.281,0.72 -0.531,1.054 -0.682,0.764 -1.425,1.265 -2.389,1.61 -1.301,0.464 -2.344,0.57 -3.747,0.593 v 5.124 h 34.055 V 324.2 c -1.745,-0.059 -4.77,-0.382 -6.006,-1.914 -0.391,-0.527 -0.628,-0.762 -0.777,-1.399 -0.18,-0.725 -0.297,-1.345 -0.391,-2.086 -0.165,-1.492 -0.23,-2.761 -0.217,-4.262 v -48.006 h -26.664 v 5.112 c 1.174,0.042 2.162,0.175 3.305,0.447 z"
   id="path25"
   inkscape:connector-curvature="0"
   style="fill-rule:evenodd" />
	<path
   d="m 416.896,272.092 c 0.504,0.131 0.919,0.285 1.385,0.517 0.499,0.244 0.879,0.536 1.243,0.954 0.391,0.528 0.63,1.043 0.781,1.682 0.182,0.723 0.3,1.344 0.396,2.084 0.166,1.491 0.232,2.759 0.219,4.26 v 32.947 c 0.006,1.928 -0.076,4.493 -0.662,6.392 -0.119,0.399 -0.281,0.72 -0.531,1.054 -0.682,0.764 -1.425,1.265 -2.389,1.61 -1.301,0.464 -2.344,0.57 -3.747,0.593 v 5.124 h 34.055 V 324.2 c -1.745,-0.059 -4.77,-0.382 -6.006,-1.914 -0.391,-0.527 -0.628,-0.762 -0.777,-1.399 -0.18,-0.725 -0.297,-1.345 -0.391,-2.086 -0.165,-1.492 -0.23,-2.761 -0.217,-4.262 v -48.006 h -26.664 v 5.112 c 1.174,0.042 2.162,0.175 3.305,0.447 z"
   id="path27"
   inkscape:connector-curvature="0"
   style="fill:none;stroke:#000000;stroke-width:0.13" />
	<path
   clip-rule="evenodd"
   d="m 383.77,280.966 v 31.279 c -0.533,0.922 -1.018,1.682 -1.632,2.555 -0.722,1.032 -1.403,1.856 -2.284,2.764 -0.855,0.884 -1.688,1.533 -2.759,2.155 -1.714,0.992 -3.696,1.235 -5.603,0.79 -0.713,-0.165 -1.286,-0.438 -1.856,-0.886 -1.152,-0.991 -1.969,-2.006 -2.679,-3.331 -0.784,-1.451 -1.323,-2.741 -1.803,-4.313 -0.405,-1.343 -0.667,-2.5 -0.879,-3.884 -0.229,-1.476 -0.377,-2.729 -0.497,-4.218 -0.217,-3.001 -0.308,-5.542 -0.306,-8.549 -0.009,-2.455 0.056,-4.529 0.217,-6.98 0.277,-4.078 0.812,-7.889 2.632,-11.619 0.588,-1.204 1.396,-2.434 2.466,-3.324 1.844,-1.534 4.87,-1.363 6.999,-0.57 3.661,1.366 6.268,4.905 7.984,8.131 z m -5.656,-37.034 c 2.082,0.191 2.87,0.686 2.975,0.744 1.019,0.625 1.705,1.454 2.127,2.572 0.555,1.518 0.552,6.707 0.554,8.341 v 15.617 c -0.762,-0.799 -1.434,-1.448 -2.259,-2.182 -1.354,-1.227 -2.631,-2.12 -4.25,-2.971 -2.43,-1.263 -5.277,-1.372 -8.022,-1.367 -4.763,0.01 -9.172,1.47 -13.01,4.116 -2.176,1.491 -3.818,3.044 -5.428,5.132 -1.742,2.267 -2.968,4.376 -4.073,7.012 -2.496,5.895 -3.434,11.822 -3.44,18.059 -0.01,9.169 2.312,18.516 8.692,25.373 4.233,4.548 9.607,6.784 15.823,6.772 4.064,-0.009 7.596,-1.146 10.739,-3.674 1.822,-1.464 3.668,-3.362 5.228,-5.192 v 7.025 h 26.886 v -5.123 c -5.995,-0.323 -7.258,-1.713 -7.479,-7.639 -0.063,-1.667 -0.083,-3.2 -0.069,-4.953 v -72.861 h -28.164 v 5.089 c 1.115,-0.015 2.058,0.017 3.17,0.11 z"
   id="path29"
   inkscape:connector-curvature="0"
   style="fill-rule:evenodd" />
	<path
   d="m 383.77,280.966 v 31.279 c -0.533,0.922 -1.018,1.682 -1.632,2.555 -0.722,1.032 -1.403,1.856 -2.284,2.764 -0.855,0.884 -1.688,1.533 -2.759,2.155 -1.714,0.992 -3.696,1.235 -5.603,0.79 -0.713,-0.165 -1.286,-0.438 -1.856,-0.886 -1.152,-0.991 -1.969,-2.006 -2.679,-3.331 -0.784,-1.451 -1.323,-2.741 -1.803,-4.313 -0.405,-1.343 -0.667,-2.5 -0.879,-3.884 -0.229,-1.476 -0.377,-2.729 -0.497,-4.218 -0.217,-3.001 -0.308,-5.542 -0.306,-8.549 -0.009,-2.455 0.056,-4.529 0.217,-6.98 0.277,-4.078 0.812,-7.889 2.632,-11.619 0.588,-1.204 1.396,-2.434 2.466,-3.324 1.844,-1.534 4.87,-1.363 6.999,-0.57 3.661,1.366 6.268,4.905 7.984,8.131 z m -5.656,-37.034 c 2.082,0.191 2.87,0.686 2.975,0.744 1.019,0.625 1.705,1.454 2.127,2.572 0.555,1.518 0.552,6.707 0.554,8.341 v 15.617 c -0.762,-0.799 -1.434,-1.448 -2.259,-2.182 -1.354,-1.227 -2.631,-2.12 -4.25,-2.971 -2.43,-1.263 -5.277,-1.372 -8.022,-1.367 -4.763,0.01 -9.172,1.47 -13.01,4.116 -2.176,1.491 -3.818,3.044 -5.428,5.132 -1.742,2.267 -2.968,4.376 -4.073,7.012 -2.496,5.895 -3.434,11.822 -3.44,18.059 -0.01,9.169 2.312,18.516 8.692,25.373 4.233,4.548 9.607,6.784 15.823,6.772 4.064,-0.009 7.596,-1.146 10.739,-3.674 1.822,-1.464 3.668,-3.362 5.228,-5.192 v 7.025 h 26.886 v -5.123 c -5.995,-0.323 -7.258,-1.713 -7.479,-7.639 -0.063,-1.667 -0.083,-3.2 -0.069,-4.953 v -72.861 h -28.164 v 5.089 c 1.115,-0.015 2.058,0.017 3.17,0.11 z"
   id="path31"
   inkscape:connector-curvature="0"
   style="fill:none;stroke:#000000;stroke-width:0.13" />
	<path
   clip-rule="evenodd"
   d="m 316.622,296.176 v 2.93 c 0,4.922 0,14.397 0,14.397 -0.578,0.437 -1.127,0.813 -1.707,1.166 -1.721,1.047 -3.488,1.879 -5.551,1.86 -3.178,-0.03 -5.911,-2.113 -6.039,-5.704 -0.079,-2.197 0.963,-4.476 2.443,-6.261 2.459,-2.964 5.726,-5.397 9.201,-7.425 l 1.653,-0.963 z m 0.145,24.504 c 0.199,1.105 0.465,2.022 0.887,3.063 0.623,1.546 1.474,2.729 2.74,3.813 1.186,0.998 2.383,1.619 3.883,2.016 1.588,0.432 2.983,0.608 4.628,0.587 7.359,-0.033 12.06,-3.714 15.763,-9.325 l -3.114,-2.823 c -0.723,1.032 -2.496,2.719 -3.967,2.249 -0.884,-0.282 -1.489,-1.324 -1.603,-3.181 -0.072,-1.188 -0.1,-2.087 -0.095,-3.34 v -23.976 c 0.005,-1.942 -0.022,-3.582 -0.089,-5.522 -0.046,-1.8 -0.16,-3.317 -0.38,-5.103 -0.079,-0.657 -0.261,-1.668 -0.476,-2.295 -0.624,-1.743 -1.424,-3.123 -2.628,-4.53 -2.88,-3.371 -6.377,-5.744 -10.603,-6.763 -2.619,-0.634 -4.901,-0.894 -7.597,-0.863 -5.023,-0.014 -9.28,0.696 -14.028,2.337 -1.992,0.677 -3.617,1.421 -5.431,2.489 -2.052,1.203 -3.623,2.504 -5.185,4.296 -1.137,1.291 -1.942,2.521 -2.671,4.078 -0.066,0.142 -0.13,0.287 -0.192,0.434 -2.074,4.917 -0.669,9.614 2.982,12.057 3.829,2.561 9.727,2.419 13.048,-0.87 3.254,-3.224 2.96,-8.103 -0.128,-11.308 -1.829,-1.9 -2.457,-3.201 -1.109,-4.435 0.623,-0.57 1.446,-1.039 2.375,-1.405 3.823,-1.508 11.066,-1.92 12.367,3.475 0.098,0.407 0.162,0.813 0.2,1.264 0.078,0.787 0.132,1.453 0.181,2.243 0.073,1.513 0.102,2.792 0.096,4.307 v 5.787 c -4.178,1.928 -7.665,3.642 -11.742,5.772 -3.594,1.875 -6.987,3.811 -10.323,6.067 -5.632,3.806 -10.168,8.94 -10.181,16.22 -0.007,3.619 1.179,6.619 3.62,9.047 2.495,2.479 5.666,3.662 9.064,3.617 1.917,-0.016 3.538,-0.265 5.371,-0.825 1.968,-0.6 3.577,-1.281 5.378,-2.274 3.244,-1.784 6.173,-3.958 8.959,-6.38 z"
   id="path33"
   inkscape:connector-curvature="0"
   style="fill-rule:evenodd" />
	<path
   d="m 316.622,296.176 v 2.93 c 0,4.922 0,14.397 0,14.397 -0.578,0.437 -1.127,0.813 -1.707,1.166 -1.721,1.047 -3.488,1.879 -5.551,1.86 -3.178,-0.03 -5.911,-2.113 -6.039,-5.704 -0.079,-2.197 0.963,-4.476 2.443,-6.261 2.459,-2.964 5.726,-5.397 9.201,-7.425 l 1.653,-0.963 z m 0.145,24.504 c 0.199,1.105 0.465,2.022 0.887,3.063 0.623,1.546 1.474,2.729 2.74,3.813 1.186,0.998 2.383,1.619 3.883,2.016 1.588,0.432 2.983,0.608 4.628,0.587 7.359,-0.033 12.06,-3.714 15.763,-9.325 l -3.114,-2.823 c -0.723,1.032 -2.496,2.719 -3.967,2.249 -0.884,-0.282 -1.489,-1.324 -1.603,-3.181 -0.072,-1.188 -0.1,-2.087 -0.095,-3.34 v -23.976 c 0.005,-1.942 -0.022,-3.582 -0.089,-5.522 -0.046,-1.8 -0.16,-3.317 -0.38,-5.103 -0.079,-0.657 -0.261,-1.668 -0.476,-2.295 -0.624,-1.743 -1.424,-3.123 -2.628,-4.53 -2.88,-3.371 -6.377,-5.744 -10.603,-6.763 -2.619,-0.634 -4.901,-0.894 -7.597,-0.863 -5.023,-0.014 -9.28,0.696 -14.028,2.337 -1.992,0.677 -3.617,1.421 -5.431,2.489 -2.052,1.203 -3.623,2.504 -5.185,4.296 -1.137,1.291 -1.942,2.521 -2.671,4.078 -0.066,0.142 -0.13,0.287 -0.192,0.434 -2.074,4.917 -0.669,9.614 2.982,12.057 3.829,2.561 9.727,2.419 13.048,-0.87 3.254,-3.224 2.96,-8.103 -0.128,-11.308 -1.829,-1.9 -2.457,-3.201 -1.109,-4.435 0.623,-0.57 1.446,-1.039 2.375,-1.405 3.823,-1.508 11.066,-1.92 12.367,3.475 0.098,0.407 0.162,0.813 0.2,1.264 0.078,0.787 0.132,1.453 0.181,2.243 0.073,1.513 0.102,2.792 0.096,4.307 v 5.787 c -4.178,1.928 -7.665,3.642 -11.742,5.772 -3.594,1.875 -6.987,3.811 -10.323,6.067 -5.632,3.806 -10.168,8.94 -10.181,16.22 -0.007,3.619 1.179,6.619 3.62,9.047 2.495,2.479 5.666,3.662 9.064,3.617 1.917,-0.016 3.538,-0.265 5.371,-0.825 1.968,-0.6 3.577,-1.281 5.378,-2.274 3.244,-1.784 6.173,-3.958 8.959,-6.38 z"
   id="path35"
   inkscape:connector-curvature="0"
   style="fill:none;stroke:#000000;stroke-width:0.13" />
	<path
   clip-rule="evenodd"
   d="m 763.925,266.882 c -0.696,-0.348 -1.406,-0.652 -2.129,-0.914 -3.674,-1.335 -8.246,-1.66 -12.428,-0.77 -8.412,1.79 -14.02,9.387 -14.463,17.725 -0.607,11.405 8.95,18.09 17.235,23.75 0.583,0.397 1.146,0.779 1.681,1.142 3.002,2.04 7.335,5.115 8.704,7.913 0.526,1.099 0.771,2.327 0.601,3.752 -0.385,3.202 -3.524,5.226 -6.639,5.22 -1.681,-0.004 -3.419,-0.464 -4.867,-1.18 -3.892,-1.921 -7.123,-4.47 -9.326,-8.176 -1.475,-2.479 -2.52,-4.858 -3.428,-7.604 h -3.154 l 1.104,23.211 h 3.014 c 1.459,-3.534 2.573,-3.734 5.967,-2.544 6.781,2.379 13.343,3.947 20.017,1.298 2.288,-0.908 4.451,-2.3 6.421,-4.273 3.924,-3.934 6.133,-9.58 6.165,-15.117 0.048,-8.501 -4.627,-13.328 -11,-18.214 -4.698,-3.602 -11.167,-7.455 -15.426,-11.374 -2.232,-2.053 -4.104,-5.581 -1.208,-8.168 1.644,-1.468 4.379,-1.819 6.445,-1.431 1.873,0.351 3.818,1.194 5.506,2.283 4.375,2.643 7.4,8.87 9.344,13.492 h 3.125 l -1.042,-22.089 h -3 c 0,0 -1.658,3.165 -3.652,3.304 -1.001,0.07 -2.077,-0.491 -3.567,-1.236 z"
   id="path37"
   inkscape:connector-curvature="0"
   style="fill-rule:evenodd" />
	<path
   d="m 763.925,266.882 c -0.696,-0.348 -1.406,-0.652 -2.129,-0.914 -3.674,-1.335 -8.246,-1.66 -12.428,-0.77 -8.412,1.79 -14.02,9.387 -14.463,17.725 -0.607,11.405 8.95,18.09 17.235,23.75 0.583,0.397 1.146,0.779 1.681,1.142 3.002,2.04 7.335,5.115 8.704,7.913 0.526,1.099 0.771,2.327 0.601,3.752 -0.385,3.202 -3.524,5.226 -6.639,5.22 -1.681,-0.004 -3.419,-0.464 -4.867,-1.18 -3.892,-1.921 -7.123,-4.47 -9.326,-8.176 -1.475,-2.479 -2.52,-4.858 -3.428,-7.604 h -3.154 l 1.104,23.211 h 3.014 c 1.459,-3.534 2.573,-3.734 5.967,-2.544 6.781,2.379 13.343,3.947 20.017,1.298 2.288,-0.908 4.451,-2.3 6.421,-4.273 3.924,-3.934 6.133,-9.58 6.165,-15.117 0.048,-8.501 -4.627,-13.328 -11,-18.214 -4.698,-3.602 -11.167,-7.455 -15.426,-11.374 -2.232,-2.053 -4.104,-5.581 -1.208,-8.168 1.644,-1.468 4.379,-1.819 6.445,-1.431 1.873,0.351 3.818,1.194 5.506,2.283 4.375,2.643 7.4,8.87 9.344,13.492 h 3.125 l -1.042,-22.089 h -3 c 0,0 -1.658,3.165 -3.652,3.304 -1.001,0.07 -2.077,-0.491 -3.567,-1.236 z"
   id="path39"
   inkscape:connector-curvature="0"
   style="fill:none;stroke:#000000;stroke-width:0.13" />
	<path
   clip-rule="evenodd"
   d="m 656.697,247.333 c 0.007,-2.798 -0.918,-5.188 -2.806,-7.256 -3.905,-4.306 -10.568,-4.635 -14.881,-0.736 -0.059,0.053 -0.108,0.098 -0.165,0.153 -4.288,4.04 -4.515,10.765 -0.575,15.095 3.986,4.381 10.76,4.625 15.047,0.583 2.25,-2.116 3.387,-4.754 3.38,-7.839 z"
   id="path41"
   inkscape:connector-curvature="0"
   style="fill-rule:evenodd" />
	<path
   d="m 656.697,247.333 c 0.007,-2.798 -0.918,-5.188 -2.806,-7.256 -3.905,-4.306 -10.568,-4.635 -14.881,-0.736 -0.059,0.053 -0.108,0.098 -0.165,0.153 -4.288,4.04 -4.515,10.765 -0.575,15.095 3.986,4.381 10.76,4.625 15.047,0.583 2.25,-2.116 3.387,-4.754 3.38,-7.839 z"
   id="path43"
   inkscape:connector-curvature="0"
   style="fill:none;stroke:#000000;stroke-width:0.13" />
	<path
   clip-rule="evenodd"
   d="m 573.788,272.02 c 1.498,0.315 2.101,0.766 2.144,0.795 0.729,0.492 1.399,1.534 1.696,2.444 0.166,0.542 0.256,1.016 0.302,1.581 0.055,0.6 0.093,1.107 0.127,1.708 0.05,1.155 0.069,2.131 0.065,3.287 0,0 0,19.7 0,28.378 0,2.624 0.121,8.942 -0.604,11.514 -0.468,1.657 -1.487,2.813 -4.037,3.351 -0.688,0.146 -1.369,0.215 -2.159,0.266 v 3.954 h 34.049 v -3.961 c -1.002,-0.042 -2.442,-0.138 -3.711,-0.407 -3.002,-0.638 -3.881,-2.225 -4.146,-4.418 -0.134,-1.111 -0.187,-7.905 -0.187,-9.021 0,-1.296 0,-2.435 0,-4.176 0,-7.771 -0.468,-15.917 2.893,-23.205 1.029,-2.232 2.533,-4.405 4.637,-5.207 2.191,-0.836 3.395,0.16 4.759,1.434 2.095,1.952 4.452,3.471 7.175,3.473 5.146,0.004 7.513,-4.051 7.985,-8.391 0.681,-6.248 -2.401,-11.052 -9.169,-10.709 -8.495,0.429 -14.046,6.087 -18.279,12.565 v -10.741 h -26.006 v 5.132 c 0.872,0.078 1.607,0.184 2.466,0.354 z"
   id="path45"
   inkscape:connector-curvature="0"
   style="fill-rule:evenodd" />
	<path
   d="m 573.788,272.02 c 1.498,0.315 2.101,0.766 2.144,0.795 0.729,0.492 1.399,1.534 1.696,2.444 0.166,0.542 0.256,1.016 0.302,1.581 0.055,0.6 0.093,1.107 0.127,1.708 0.05,1.155 0.069,2.131 0.065,3.287 0,0 0,19.7 0,28.378 0,2.624 0.121,8.942 -0.604,11.514 -0.468,1.657 -1.487,2.813 -4.037,3.351 -0.688,0.146 -1.369,0.215 -2.159,0.266 v 3.954 h 34.049 v -3.961 c -1.002,-0.042 -2.442,-0.138 -3.711,-0.407 -3.002,-0.638 -3.881,-2.225 -4.146,-4.418 -0.134,-1.111 -0.187,-7.905 -0.187,-9.021 0,-1.296 0,-2.435 0,-4.176 0,-7.771 -0.468,-15.917 2.893,-23.205 1.029,-2.232 2.533,-4.405 4.637,-5.207 2.191,-0.836 3.395,0.16 4.759,1.434 2.095,1.952 4.452,3.471 7.175,3.473 5.146,0.004 7.513,-4.051 7.985,-8.391 0.681,-6.248 -2.401,-11.052 -9.169,-10.709 -8.495,0.429 -14.046,6.087 -18.279,12.565 v -10.741 h -26.006 v 5.132 c 0.872,0.078 1.607,0.184 2.466,0.354 z"
   id="path47"
   inkscape:connector-curvature="0"
   style="fill:none;stroke:#000000;stroke-width:0.13" />
	<path
   clip-rule="evenodd"
   d="m 232.139,272.02 c 1.498,0.315 2.1,0.766 2.143,0.795 0.73,0.492 1.4,1.534 1.696,2.444 0.167,0.542 0.257,1.016 0.302,1.581 0.056,0.6 0.093,1.107 0.127,1.708 0.05,1.155 0.07,2.131 0.066,3.287 0,0 0,18.996 0,27.674 0,2.623 0.121,8.941 -0.605,11.514 -0.468,1.657 -1.486,2.813 -4.037,3.351 -0.688,0.145 -1.367,0.214 -2.158,0.266 v 4.658 h 34.048 v -4.666 c -1.002,-0.042 -2.442,-0.137 -3.71,-0.406 -3.002,-0.638 -3.881,-2.226 -4.146,-4.419 -0.134,-1.109 -0.185,-7.903 -0.185,-9.02 0,-1.296 0,-2.435 0,-4.175 0,-7.772 -0.469,-15.214 2.891,-22.502 1.029,-2.232 2.534,-4.405 4.637,-5.207 2.192,-0.836 3.395,0.16 4.76,1.434 2.094,1.952 4.451,3.471 7.175,3.473 5.146,0.004 7.512,-4.051 7.985,-8.391 0.681,-6.248 -2.402,-11.052 -9.17,-10.709 -8.494,0.429 -14.046,6.087 -18.277,12.565 v -10.741 h -26.007 v 5.132 c 0.871,0.078 1.604,0.184 2.465,0.354 z"
   id="path49"
   inkscape:connector-curvature="0"
   style="fill-rule:evenodd" />
	<path
   d="m 232.139,272.02 c 1.498,0.315 2.1,0.766 2.143,0.795 0.73,0.492 1.4,1.534 1.696,2.444 0.167,0.542 0.257,1.016 0.302,1.581 0.056,0.6 0.093,1.107 0.127,1.708 0.05,1.155 0.07,2.131 0.066,3.287 0,0 0,18.996 0,27.674 0,2.623 0.121,8.941 -0.605,11.514 -0.468,1.657 -1.486,2.813 -4.037,3.351 -0.688,0.145 -1.367,0.214 -2.158,0.266 v 4.658 h 34.048 v -4.666 c -1.002,-0.042 -2.442,-0.137 -3.71,-0.406 -3.002,-0.638 -3.881,-2.226 -4.146,-4.419 -0.134,-1.109 -0.185,-7.903 -0.185,-9.02 0,-1.296 0,-2.435 0,-4.175 0,-7.772 -0.469,-15.214 2.891,-22.502 1.029,-2.232 2.534,-4.405 4.637,-5.207 2.192,-0.836 3.395,0.16 4.76,1.434 2.094,1.952 4.451,3.471 7.175,3.473 5.146,0.004 7.512,-4.051 7.985,-8.391 0.681,-6.248 -2.402,-11.052 -9.17,-10.709 -8.494,0.429 -14.046,6.087 -18.277,12.565 v -10.741 h -26.007 v 5.132 c 0.871,0.078 1.604,0.184 2.465,0.354 z"
   id="path51"
   inkscape:connector-curvature="0"
   style="fill:none;stroke:#000000;stroke-width:0.13" />
	<path
   clip-rule="evenodd"
   d="m 199.004,258.582 c -2.093,2.327 -3.977,4.188 -6.329,6.252 -2.562,2.246 -5.052,4.197 -7.832,6.172 v 3.087 h 7.98 c 0,0 0,30.711 0,31.756 0,4.047 -0.232,7.912 0.277,11.377 2.153,14.598 19.996,15.853 29.598,8.695 2.635,-1.964 4.709,-4.521 5.794,-7.52 l -4.448,-3.646 c -0.574,1.028 -1.328,2.262 -2.242,3.396 -0.671,0.803 -1.376,1.438 -2.087,1.907 -3.309,2.186 -6.391,0.672 -7.175,-3.074 -0.555,-2.654 -0.384,-6.546 -0.384,-8.556 0,-2.975 0,-34.336 0,-34.336 h 14.52 v -7.559 h -14.52 v -22.586 h -2.974 c -2.956,5.541 -6.01,9.932 -10.178,14.635 z"
   id="path53"
   inkscape:connector-curvature="0"
   style="fill-rule:evenodd" />
	<path
   d="m 199.004,258.582 c -2.093,2.327 -3.977,4.188 -6.329,6.252 -2.562,2.246 -5.052,4.197 -7.832,6.172 v 3.087 h 7.98 c 0,0 0,30.711 0,31.756 0,4.047 -0.232,7.912 0.277,11.377 2.153,14.598 19.996,15.853 29.598,8.695 2.635,-1.964 4.709,-4.521 5.794,-7.52 l -4.448,-3.646 c -0.574,1.028 -1.328,2.262 -2.242,3.396 -0.671,0.803 -1.376,1.438 -2.087,1.907 -3.309,2.186 -6.391,0.672 -7.175,-3.074 -0.555,-2.654 -0.384,-6.546 -0.384,-8.556 0,-2.975 0,-34.336 0,-34.336 h 14.52 v -7.559 h -14.52 v -22.586 h -2.974 c -2.956,5.541 -6.01,9.932 -10.178,14.635 z"
   id="path55"
   inkscape:connector-curvature="0"
   style="fill:none;stroke:#000000;stroke-width:0.13" />
	<path
   clip-rule="evenodd"
   d="m 441.23,247.333 c 0.006,-2.798 -0.918,-5.188 -2.806,-7.256 -3.905,-4.306 -10.568,-4.635 -14.881,-0.736 -0.06,0.053 -0.108,0.098 -0.166,0.153 -4.287,4.04 -4.515,10.765 -0.574,15.095 3.986,4.381 10.76,4.625 15.047,0.583 2.251,-2.116 3.387,-4.754 3.38,-7.839 z"
   id="path57"
   inkscape:connector-curvature="0"
   style="fill-rule:evenodd" />
	<path
   d="m 441.23,247.333 c 0.006,-2.798 -0.918,-5.188 -2.806,-7.256 -3.905,-4.306 -10.568,-4.635 -14.881,-0.736 -0.06,0.053 -0.108,0.098 -0.166,0.153 -4.287,4.04 -4.515,10.765 -0.574,15.095 3.986,4.381 10.76,4.625 15.047,0.583 2.251,-2.116 3.387,-4.754 3.38,-7.839 z"
   id="path59"
   inkscape:connector-curvature="0"
   style="fill:none;stroke:#000000;stroke-width:0.13" />
</g>
</svg>